<?xml version="1.0" standalone="no"?>
<!DOCTYPE svg PUBLIC "-//W3C//DTD SVG 20010904//EN"
 "http://www.w3.org/TR/2001/REC-SVG-20010904/DTD/svg10.dtd">
<svg version="1.0" xmlns="http://www.w3.org/2000/svg"
 width="626.000000pt" height="626.000000pt" viewBox="0 0 626.000000 626.000000"
 preserveAspectRatio="xMidYMid meet">

<g transform="translate(0.000000,626.000000) scale(0.100000,-0.100000)"
fill="#000000" stroke="none">
<path d="M2910 5710 c-240 -22 -501 -84 -725 -172 -86 -34 -137 -58 -310 -147
-53 -27 -218 -133 -280 -179 -170 -128 -408 -357 -399 -383 2 -10 -12 -37 -34
-66 -22 -27 -43 -59 -46 -71 -4 -12 -12 -22 -18 -22 -6 0 -6 -6 2 -15 10 -13
9 -15 -9 -15 -12 0 -21 -6 -21 -15 0 -9 -10 -20 -23 -25 -12 -5 -15 -9 -7 -9
9 -1 -2 -17 -28 -41 -23 -22 -42 -44 -42 -50 0 -5 -4 -10 -10 -10 -5 0 -10 -5
-10 -12 0 -15 -51 -81 -57 -74 -3 3 2 12 11 21 9 9 16 22 16 28 0 17 -15 -1
-44 -55 -29 -52 -32 -62 -13 -52 6 4 0 -6 -14 -22 -15 -16 -30 -40 -34 -54 -4
-13 -23 -54 -41 -91 -67 -132 -132 -355 -170 -579 -20 -113 -26 -195 -30 -370
-4 -135 -2 -241 4 -265 9 -38 10 -38 12 -10 1 26 3 27 10 10 6 -16 8 -13 7 15
0 53 22 192 33 205 6 7 6 15 0 21 -5 5 -2 57 7 129 8 66 15 137 15 158 0 20 3
37 7 37 3 0 7 16 8 36 1 19 14 73 28 120 15 46 25 91 21 99 -3 9 -2 14 3 11 5
-3 12 1 15 10 3 9 2 12 -5 8 -7 -4 -7 -1 0 12 5 11 17 42 25 69 21 73 117 303
149 355 15 25 34 62 43 83 10 20 20 37 25 37 4 0 5 8 3 18 -3 9 12 39 34 67
21 28 53 73 72 100 18 28 40 57 49 66 9 9 34 38 56 65 77 93 90 104 118 96 31
-8 169 -157 274 -297 42 -55 85 -108 97 -117 12 -9 21 -21 21 -27 0 -5 26 -32
58 -60 78 -69 59 -65 -28 6 -159 128 -405 275 -458 272 -7 0 12 -9 41 -20 67
-26 61 -36 -9 -15 -64 19 -59 19 -59 1 0 -7 -7 -18 -16 -23 -11 -6 12 -16 82
-37 53 -16 112 -39 131 -52 18 -13 38 -23 43 -23 12 0 141 -71 350 -193 76
-45 36 -30 -64 24 -89 47 -231 97 -243 85 -3 -2 27 -14 66 -26 39 -12 73 -26
76 -30 3 -5 -8 -5 -24 0 -16 4 -44 4 -62 0 -19 -4 -26 -8 -15 -9 10 -1 38 -18
61 -38 23 -21 55 -49 71 -63 62 -54 69 -120 12 -111 -4 0 1 -13 10 -29 l17
-29 55 53 c30 29 86 79 123 111 42 36 66 64 63 72 -3 8 -2 12 3 9 5 -3 28 5
52 19 24 14 54 29 66 35 13 5 42 19 65 31 24 11 62 20 85 20 37 0 44 3 49 24
5 18 13 25 33 26 14 0 21 3 14 5 -7 3 13 30 48 65 32 32 59 63 59 69 0 5 10
20 23 32 13 13 22 28 20 34 -2 6 22 43 52 83 51 64 56 74 47 99 -5 15 -15 26
-22 24 -7 -2 -10 3 -7 12 3 8 0 19 -7 25 -9 7 -19 2 -36 -19 -14 -17 -28 -30
-31 -30 -4 0 -15 41 -24 92 -19 94 -65 200 -108 248 -12 14 -41 40 -65 59 -38
29 -41 35 -29 50 24 29 21 85 -7 130 -29 46 -52 52 -66 19 -5 -13 -9 -17 -9
-10 -1 6 -7 12 -15 12 -11 0 -14 -10 -10 -41 3 -22 9 -51 14 -65 6 -14 10 -27
10 -28 0 -2 -17 -4 -37 -5 -62 -1 -83 -5 -83 -14 0 -4 -4 -5 -10 -2 -5 3 -10
-1 -10 -10 0 -12 6 -15 20 -10 11 4 20 2 20 -4 0 -6 5 -11 11 -11 16 0 41 -29
34 -40 -3 -5 1 -10 11 -10 11 0 15 6 11 20 -3 11 -1 18 4 14 5 -3 9 0 9 7 0 7
3 10 6 7 3 -3 -2 -23 -11 -44 -11 -27 -18 -35 -24 -25 -7 10 -10 9 -14 -4 -4
-10 -3 -14 4 -9 18 11 -1 -37 -29 -73 -13 -18 -29 -33 -35 -33 -6 0 -19 -7
-29 -17 -11 -9 -18 -11 -18 -5 0 7 4 12 9 12 6 0 16 12 24 28 7 15 19 26 25
25 7 -2 12 0 13 5 0 4 3 18 5 32 4 21 1 19 -22 -13 -23 -34 -29 -38 -60 -34
-21 3 -38 0 -45 -9 -17 -20 -41 3 -71 69 l-23 52 -3 -41 c-2 -23 6 -68 17
-100 35 -105 34 -101 22 -84 -7 10 -11 11 -11 3 0 -8 -13 -13 -29 -13 -38 0
-48 -16 -16 -24 21 -5 23 -9 13 -20 -7 -8 -15 -14 -18 -14 -21 1 -30 -4 -25
-13 4 -6 13 -8 21 -5 8 3 11 0 7 -10 -3 -8 -19 -14 -40 -14 -30 0 -34 2 -23
14 9 12 8 15 -7 15 -41 -1 -123 14 -123 23 0 5 5 6 10 3 6 -3 10 -1 10 4 0 6
10 11 21 11 19 0 21 4 16 40 -3 22 -2 42 2 45 4 2 6 18 3 36 -3 22 -7 27 -13
18 -7 -11 -9 -11 -9 1 0 9 -6 4 -14 -10 -8 -15 -10 -32 -5 -42 9 -17 -14 -33
-32 -22 -5 3 -10 -7 -10 -23 -9 -159 7 -220 85 -333 40 -58 68 -110 59 -110
-3 0 3 -10 14 -22 11 -13 30 -42 42 -65 12 -24 33 -50 47 -59 14 -9 23 -23 20
-29 -3 -9 3 -11 17 -8 22 4 22 4 2 -12 -11 -9 -19 -21 -17 -26 5 -19 -7 -7
-44 44 -20 28 -74 95 -119 147 -92 107 -118 147 -136 208 -7 23 -16 42 -21 42
-24 0 22 -112 87 -210 30 -44 51 -79 46 -75 -32 19 -156 239 -192 340 -10 28
-18 41 -18 30 0 -11 15 -58 35 -105 19 -47 44 -106 54 -132 10 -26 28 -65 41
-85 16 -26 18 -34 7 -25 -9 8 -41 62 -70 120 -46 93 -65 118 -140 193 -49 48
-88 90 -88 94 0 20 154 150 179 150 9 0 16 7 16 15 0 16 88 90 154 130 23 14
78 49 122 77 73 48 326 181 374 196 11 4 27 11 35 16 23 15 53 24 70 22 8 -1
33 8 55 19 21 11 46 20 55 20 8 0 52 13 98 29 48 17 84 25 88 20 3 -6 10 -6
17 -1 19 14 99 33 137 32 19 -1 59 3 89 9 30 6 85 12 123 13 37 2 68 5 68 8 0
7 220 4 330 -4 76 -6 282 -33 310 -41 8 -2 26 -6 40 -9 14 -3 43 -10 65 -16
22 -6 58 -15 80 -20 68 -16 171 -47 196 -61 13 -7 26 -11 29 -10 5 2 76 -22
115 -39 11 -5 41 -18 67 -29 26 -12 52 -21 58 -21 5 0 18 -4 28 -9 16 -9 47
-20 57 -21 3 0 21 -9 40 -20 20 -11 42 -20 50 -20 8 0 37 -14 65 -31 28 -17
53 -29 56 -26 6 6 -50 47 -65 47 -6 0 -11 5 -11 10 0 6 -7 10 -15 10 -8 0 -15
3 -15 8 0 4 -17 18 -38 32 -20 14 -39 27 -42 30 -19 20 -231 128 -352 179
-338 145 -790 215 -1168 181z m-687 -355 c-3 -9 -8 -14 -10 -11 -3 3 -2 9 2
15 9 16 15 13 8 -4z m-8 -135 c-3 -5 -11 -10 -16 -10 -6 0 -7 5 -4 10 3 6 11
10 16 10 6 0 7 -4 4 -10z m-59 -183 c-31 -65 -125 -160 -145 -148 -17 11 -6
31 18 31 21 0 55 28 59 50 2 8 15 32 30 54 15 21 34 49 42 62 26 41 23 6 -4
-49z m74 29 c0 -8 -4 -18 -10 -21 -5 -3 -10 3 -10 14 0 12 5 21 10 21 6 0 10
-6 10 -14z m-44 -85 c-9 -11 -6 -13 14 -6 22 6 23 5 9 -6 -9 -8 -19 -22 -23
-32 -5 -15 -2 -17 14 -12 12 4 20 2 20 -6 0 -9 3 -9 15 1 8 6 20 10 27 8 7 -3
-2 -12 -21 -22 -42 -22 -111 -47 -111 -40 0 3 14 10 30 15 38 14 40 31 3 23
-21 -4 -24 -3 -13 5 23 16 4 24 -29 13 -19 -7 -31 -7 -31 -1 0 5 4 9 8 9 5 0
26 30 48 67 l39 67 6 -34 c3 -19 0 -41 -5 -49z m-156 18 c0 -13 -29 -31 -40
-24 -19 12 -10 30 15 30 14 0 25 -3 25 -6z m-799 -150 c-12 -12 -25 -18 -28
-15 -4 3 2 13 13 21 29 22 41 18 15 -6z m969 -24 c0 -8 -4 -15 -10 -15 -5 0
-7 7 -4 15 4 8 8 15 10 15 2 0 4 -7 4 -15z m-209 -37 c6 -11 6 -19 -1 -23 -5
-3 -10 -1 -10 6 0 24 -13 -1 -16 -32 -2 -18 -6 -35 -9 -37 -9 -9 -5 46 5 74 9
23 8 25 -3 15 -11 -9 -17 -8 -25 1 -8 10 -3 13 20 13 17 0 33 -7 39 -17z
m-587 -25 c36 -33 99 -112 120 -153 7 -14 -17 12 -51 55 -8 11 -41 46 -71 78
-63 64 -62 77 2 20z m589 -38 c-3 -9 -8 -14 -10 -11 -3 3 -2 9 2 15 9 16 15
13 8 -4z m565 -47 c-7 -7 -22 -20 -33 -28 -15 -10 -14 -7 4 13 14 15 29 27 33
27 5 0 3 -6 -4 -12z m-780 -27 c3 -8 -1 -12 -9 -9 -7 2 -15 10 -17 17 -3 8 1
12 9 9 7 -2 15 -10 17 -17z m487 -301 c3 -5 1 -10 -4 -10 -6 0 -11 5 -11 10 0
6 2 10 4 10 3 0 8 -4 11 -10z m-280 -118 c-3 -3 -11 0 -18 7 -9 10 -8 11 6 5
10 -3 15 -9 12 -12z"/>
<path d="M2960 5540 c13 -9 13 -11 0 -19 -9 -7 -17 -6 -21 1 -4 7 -9 7 -13 0
-3 -6 5 -23 18 -38 20 -24 26 -26 40 -15 30 25 14 81 -23 81 -14 0 -14 -1 -1
-10z"/>
<path d="M2824 5514 c9 -8 14 -20 11 -25 -10 -15 -33 -10 -38 9 -3 11 -5 8 -6
-9 -1 -35 34 -67 57 -53 9 6 18 19 20 28 5 23 -24 66 -44 66 -14 0 -14 -2 0
-16z"/>
<path d="M2532 5484 c-16 -6 -33 -17 -36 -23 -10 -16 -1 -14 34 8 32 19 50 18
167 -11 46 -11 138 -92 126 -111 -4 -6 -1 -7 7 -2 10 6 12 4 7 -9 -4 -10 -3
-15 3 -11 17 10 11 23 -27 66 -42 47 -108 88 -146 91 -15 1 -27 5 -27 8 0 10
-79 7 -108 -6z"/>
<path d="M3451 5478 c33 -31 43 -82 28 -145 -14 -60 -17 -78 -19 -128 -2 -47
-6 -39 -15 30 -6 39 -9 46 -16 30 -7 -18 -8 -18 -8 5 l-1 25 -23 -25 c-29 -31
-44 -88 -19 -68 13 11 15 10 9 -5 -4 -10 -7 -21 -7 -23 0 -2 -6 -4 -14 -4 -8
0 -17 -11 -20 -24 -4 -15 -15 -26 -33 -30 -29 -6 -70 -33 -62 -40 2 -3 30 8
62 23 31 15 57 24 57 20 0 -4 -5 -11 -10 -14 -6 -4 -2 -18 10 -36 12 -16 17
-29 11 -29 -6 0 -14 0 -18 0 -5 0 -9 5 -9 10 -3 22 -4 24 -16 12 -9 -9 -8 -15
8 -26 14 -11 16 -17 7 -27 -6 -6 -9 -18 -6 -26 8 -20 -18 -65 -34 -59 -10 4
-10 1 -1 -13 6 -10 8 -26 3 -37 -6 -15 -11 -10 -25 31 -10 28 -19 67 -19 87
-1 20 -6 40 -11 43 -6 4 -8 10 -5 15 3 4 -4 6 -15 3 -19 -5 -19 -7 -4 -18 10
-7 16 -23 14 -41 -4 -70 -3 -133 5 -150 4 -11 8 -33 9 -51 2 -28 0 -30 -16
-22 -10 5 -18 12 -18 15 0 3 5 2 11 -2 8 -4 8 0 0 15 -7 11 -14 21 -17 21 -3
0 -3 -4 0 -9 4 -5 3 -16 0 -25 -5 -12 -10 -13 -25 -5 -18 9 -23 5 -20 -15 1
-5 -4 -13 -11 -17 -10 -7 -10 -9 0 -9 6 0 12 -7 12 -15 0 -9 7 -18 15 -21 12
-5 11 -11 -8 -33 -15 -19 -25 -24 -32 -17 -22 23 -46 154 -26 141 5 -3 12 1
14 7 4 10 8 9 16 -2 9 -13 11 -12 10 5 0 11 -5 29 -10 40 -9 19 -9 19 -5 -2 2
-13 -2 -24 -11 -27 -20 -8 -23 -8 -23 5 0 5 5 7 10 4 6 -3 10 -2 10 4 0 5 -5
13 -10 16 -7 4 -9 48 -6 123 2 67 1 106 -4 92 -4 -14 -8 -100 -9 -191 -1 -136
3 -180 19 -245 19 -73 25 -84 81 -140 36 -37 59 -67 54 -73 -4 -7 -1 -19 6
-27 14 -17 9 -24 -20 -27 -11 -1 -17 -4 -13 -8 4 -4 20 -5 35 -2 27 5 27 6 12
30 -9 14 -14 27 -12 30 3 3 12 -8 21 -24 8 -16 41 -51 73 -78 64 -54 94 -86
87 -96 -2 -4 3 -6 12 -5 9 0 23 -10 32 -23 16 -23 16 -24 -6 -10 -18 11 -23
11 -34 0 -10 -11 -10 -12 0 -7 7 4 20 -1 30 -10 15 -16 15 -17 0 -12 -10 4
-19 1 -22 -9 -6 -15 -8 -15 -19 -1 -8 11 -18 13 -32 8 -11 -5 -14 -9 -7 -9 19
-1 14 -19 -8 -31 -16 -8 -20 -8 -18 2 5 21 -35 19 -61 -3 -21 -17 -23 -23 -13
-40 19 -30 14 -32 -20 -8 -21 15 -28 17 -20 7 17 -21 8 -38 -19 -38 -10 0 -19
-4 -19 -8 0 -5 -6 -9 -12 -10 -7 0 -22 -3 -33 -5 -11 -2 -26 0 -33 6 -9 7 -11
6 -8 -4 3 -8 -6 -27 -20 -44 -19 -22 -23 -24 -15 -7 7 13 8 22 2 22 -6 0 -13
-17 -17 -37 -7 -36 -7 -36 -17 -13 -10 25 -10 24 -17 -10 -3 -19 -14 -47 -23
-61 -17 -26 -17 -27 3 -32 11 -3 23 0 26 5 4 7 10 4 16 -6 5 -9 14 -13 21 -9
7 4 6 -1 -2 -10 -8 -10 -11 -20 -7 -24 3 -3 6 -2 6 3 0 5 19 10 41 11 23 0 45
6 49 13 4 6 6 -8 6 -32 -1 -40 1 -43 24 -40 24 3 24 3 6 -11 -19 -14 -19 -15
7 -32 24 -15 28 -16 42 -1 22 21 28 20 16 -3 -8 -14 -7 -22 4 -31 13 -11 14
-10 9 3 -4 12 -1 14 17 10 17 -5 20 -3 14 7 -5 9 -4 11 4 6 6 -4 23 2 37 13
31 25 44 26 44 7 0 -8 6 -16 13 -19 9 -3 9 -8 -2 -21 -12 -14 -12 -16 4 -10
15 6 16 4 6 -14 -6 -11 -11 -23 -11 -25 0 -4 65 -1 91 5 46 10 85 92 58 124
-14 16 -49 15 -71 -4 -11 -9 -18 -11 -18 -4 0 6 -7 9 -16 5 -14 -5 -15 -3 -5
15 13 25 34 30 25 7 -8 -21 14 -19 23 3 7 15 8 31 4 67 -1 11 -71 -61 -71 -74
0 -6 -12 -6 -30 -1 -19 5 -30 5 -30 -1 0 -6 -5 -7 -10 -4 -8 5 -7 11 1 21 12
14 11 14 -33 18 -7 1 -17 7 -21 14 -5 7 -17 10 -28 7 -27 -9 -59 3 -53 20 3 7
0 16 -5 20 -6 3 -8 12 -4 18 4 6 8 26 10 44 3 28 0 33 -17 33 -16 0 -20 6 -19
28 2 23 2 24 6 5 6 -31 40 -30 54 1 9 19 17 23 38 20 43 -7 45 -7 69 0 19 7
22 4 22 -23 0 -16 5 -42 12 -56 10 -23 16 -26 42 -21 17 4 33 11 34 16 2 6 8
8 12 5 5 -3 7 -12 3 -20 -3 -10 1 -15 15 -15 12 0 22 9 26 23 9 35 7 39 -15
32 l-21 -7 21 21 c14 14 20 31 18 49 -4 26 -6 27 -63 25 -59 -1 -59 -1 -60 28
-1 21 2 27 9 20 13 -13 65 23 77 53 5 11 9 15 9 8 1 -7 6 -10 11 -7 6 4 7 12
4 18 -4 7 7 -1 25 -18 18 -16 31 -25 29 -18 -3 11 1 13 22 13 5 0 18 -17 29
-37 11 -21 45 -63 76 -93 87 -84 88 -90 16 -90 l-59 0 0 36 c0 45 -13 60 -40
45 -10 -6 -22 -7 -26 -4 -3 3 -6 -1 -6 -9 0 -9 -3 -29 -6 -46 -5 -25 -3 -30
12 -29 26 3 30 -30 5 -38 -32 -10 -25 -33 15 -52 28 -14 32 -19 18 -23 -16 -6
-15 -7 4 -12 12 -4 22 -2 22 3 0 5 11 4 25 -1 16 -6 25 -6 25 0 0 11 35 8 46
-3 15 -15 60 -6 72 13 16 27 38 25 57 -4 15 -22 15 -27 1 -49 -9 -13 -13 -26
-10 -30 3 -3 -1 -15 -9 -27 -14 -21 -14 -21 -20 0 -5 21 -27 28 -27 9 0 -5 5
-7 10 -4 6 3 10 4 10 0 0 -8 -50 -28 -79 -31 -12 -2 -29 -11 -35 -20 -15 -20
-34 -12 -46 22 -5 13 -14 24 -20 24 -6 0 -6 -9 0 -25 6 -15 6 -26 -1 -30 -5
-4 -7 -11 -4 -16 4 -5 -3 -23 -15 -39 -21 -30 -40 -39 -40 -19 0 5 5 7 10 4 6
-3 10 3 10 15 0 12 -4 18 -10 15 -5 -3 -10 -1 -10 4 0 14 17 14 25 1 7 -11 25
-4 25 10 0 5 -7 7 -15 4 -8 -4 -15 -1 -15 6 0 10 -3 10 -15 0 -8 -7 -15 -21
-15 -31 0 -26 -30 -59 -55 -59 -16 0 -12 -7 23 -36 53 -45 55 -75 8 -129 -31
-34 -115 -163 -239 -366 -26 -43 -54 -80 -63 -83 -18 -7 -21 -5 -169 82 -248
146 -300 182 -265 182 6 0 10 10 10 23 0 28 -37 32 -46 5 -7 -23 -18 -23 -52
1 -68 48 -95 32 -72 -42 7 -23 14 -50 15 -59 2 -19 -21 -33 -30 -19 -7 12 -42
2 -49 -14 -2 -7 6 -17 20 -24 14 -6 24 -19 24 -31 0 -11 7 -20 15 -20 12 0 14
8 9 40 -7 43 5 52 32 26 19 -19 18 -23 -10 -56 -16 -19 -27 -25 -37 -20 -7 5
-18 5 -25 -1 -8 -6 -13 -3 -17 12 -5 19 -8 20 -21 10 -11 -10 -13 -18 -6 -31
14 -26 13 -30 -11 -30 -16 0 -19 -4 -14 -21 4 -13 3 -19 -2 -16 -6 4 -8 -4 -5
-18 3 -19 -3 -31 -24 -48 -16 -12 -36 -29 -44 -37 -18 -18 -60 -26 -60 -11 0
5 11 23 25 39 13 16 23 31 20 34 -2 2 6 5 18 5 12 1 23 7 25 13 2 5 8 8 13 4
14 -8 10 12 -5 25 -7 6 -21 9 -29 5 -12 -4 -18 2 -23 20 -3 14 -10 26 -15 26
-5 0 -9 9 -9 20 0 11 -5 20 -11 20 -6 0 -9 -7 -6 -14 4 -10 1 -13 -9 -9 -9 3
-12 12 -9 24 4 13 1 19 -9 19 -9 0 -16 5 -16 10 0 6 12 10 26 10 21 0 24 4 19
20 -4 11 -2 20 4 20 6 0 11 -5 11 -10 0 -10 20 -8 68 6 25 7 29 -7 7 -26 -8
-7 -15 -17 -15 -22 0 -5 23 14 52 42 30 30 48 54 42 59 -13 13 -95 19 -121 10
-17 -6 -25 -4 -32 9 -5 9 -13 14 -17 10 -4 -4 -13 0 -21 10 -10 12 -16 14 -19
4 -3 -6 -10 -10 -15 -6 -15 9 -31 -48 -20 -73 7 -16 7 -23 -2 -26 -8 -3 -4
-15 11 -36 22 -31 23 -32 3 -22 -17 9 -22 8 -31 -8 -5 -11 -10 -28 -10 -38 0
-15 -2 -16 -10 -3 -8 12 -10 10 -10 -9 0 -16 4 -22 15 -17 8 3 15 1 15 -5 0
-6 6 -7 13 -3 6 4 8 3 4 -1 -4 -5 -19 -11 -32 -12 -20 -3 -25 1 -25 19 0 17
-3 19 -12 10 -14 -14 -54 -16 -62 -3 -4 5 -1 22 5 38 6 15 15 44 20 63 7 30 6
32 -5 18 -7 -10 -19 -18 -26 -18 -10 0 -10 -3 0 -15 11 -13 10 -14 -4 -9 -9 3
-16 7 -16 8 0 0 4 16 10 35 9 32 8 33 -16 28 -20 -4 -23 -1 -19 14 4 13 1 19
-9 19 -9 0 -16 -6 -16 -14 0 -8 -5 -18 -11 -22 -8 -5 -10 3 -7 25 3 20 1 30
-6 28 -6 -2 -10 -15 -9 -28 1 -13 0 -18 -3 -11 -4 9 -13 7 -34 -8 -18 -13 -31
-17 -35 -10 -4 6 -10 8 -15 5 -5 -3 -12 0 -16 6 -4 8 -3 9 4 5 17 -10 14 25
-3 48 -18 24 -20 60 -3 50 6 -4 8 -3 4 4 -3 6 -16 9 -27 7 -11 -2 -26 -2 -34
1 -15 6 -50 55 -38 53 20 -3 24 2 13 16 -7 8 -22 15 -33 15 -20 0 -21 0 -1 15
18 14 17 14 -10 5 -25 -9 -27 -9 -17 4 10 12 8 17 -9 26 -20 11 -19 30 1 30 6
0 7 -5 3 -12 -5 -7 -3 -8 5 -3 9 5 9 11 3 17 -15 15 -72 -28 -72 -53 0 -10 -5
-19 -10 -19 -6 0 -9 3 -8 8 4 18 -32 79 -56 95 -15 10 -24 22 -21 26 4 8 -11
19 -25 18 -3 0 -15 5 -27 12 -17 8 -28 9 -43 1 -15 -8 -20 -8 -20 1 0 7 -3 10
-6 7 -3 -4 -22 9 -41 29 -21 20 -39 30 -42 24 -4 -6 -18 0 -34 15 -42 38 -36
76 22 153 31 41 45 68 40 75 -5 6 -17 20 -27 31 -20 24 -108 48 -169 47 -23 0
-73 -10 -110 -23 -72 -23 -235 -98 -267 -122 -19 -14 -19 -15 10 -30 16 -9 41
-31 55 -49 18 -23 42 -38 70 -47 24 -6 61 -19 82 -28 29 -12 40 -14 49 -5 21
21 48 15 44 -10 -2 -14 5 -33 18 -47 l21 -24 -30 16 c-49 27 -189 75 -252 87
-50 9 -76 7 -158 -9 -157 -32 -184 -62 -172 -189 15 -171 207 -471 370 -580
27 -18 45 -27 41 -20 -8 14 31 -16 56 -44 9 -9 43 -21 75 -27 248 -46 277 -50
301 -41 34 13 34 13 34 -10 0 -11 4 -20 9 -20 5 0 17 -3 25 -6 11 -4 15 -2 11
7 -8 22 10 41 36 37 17 -2 24 -10 25 -25 1 -13 -5 -23 -12 -23 -25 0 -14 -16
23 -34 36 -17 37 -17 55 6 19 25 24 18 8 -12 -15 -29 43 -74 84 -66 17 4 49 9
71 13 22 3 52 15 66 26 24 17 31 18 63 6 20 -7 36 -16 36 -20 0 -4 30 -14 67
-23 169 -43 337 -173 403 -313 48 -101 59 -136 71 -235 13 -107 2 -181 -43
-301 -27 -71 -88 -167 -142 -223 -25 -27 -191 -122 -226 -131 -14 -3 -30 -9
-35 -14 -20 -15 -141 -29 -205 -23 -87 8 -233 48 -269 73 -16 12 -34 21 -40
21 -6 0 -50 39 -99 88 -76 75 -96 102 -141 192 l-53 105 -1 107 c-1 59 -5 100
-8 91 -5 -15 -8 -14 -22 8 -17 25 -13 69 5 69 6 0 8 6 5 13 -7 18 29 41 36 24
4 -8 6 -6 6 3 1 9 17 49 36 89 20 41 32 77 28 81 -4 3 -61 23 -125 44 -64 21
-147 56 -184 77 -36 21 -70 39 -75 39 -5 0 -9 5 -9 12 0 6 -3 8 -6 5 -10 -10
-45 13 -39 24 4 5 1 8 -7 7 -7 -2 -12 4 -10 12 3 12 1 12 -9 3 -10 -10 -4 -20
28 -48 23 -19 46 -50 53 -68 14 -35 105 -127 127 -127 7 0 16 -7 19 -15 4 -8
9 -13 13 -11 12 8 42 -22 39 -40 -2 -9 3 -19 10 -21 6 -3 12 0 12 6 0 6 5 11
11 11 6 0 8 -9 4 -22 -5 -20 -4 -21 7 -7 16 20 78 7 78 -17 0 -8 -4 -12 -10
-9 -5 3 -10 2 -10 -2 0 -5 -13 -14 -30 -20 -51 -19 -64 -84 -28 -136 15 -22
17 -28 5 -18 -15 12 -17 11 -17 -8 0 -12 4 -20 10 -16 5 3 3 -7 -5 -22 -8 -15
-15 -31 -15 -35 0 -11 34 -2 38 10 2 6 10 8 18 5 11 -4 14 -29 14 -118 0 -66
4 -116 10 -120 6 -4 8 -11 4 -16 -3 -5 0 -8 7 -7 7 2 14 -1 14 -7 4 -28 20
-44 47 -50 19 -5 52 -31 91 -72 34 -36 90 -86 125 -110 35 -25 60 -48 57 -51
-3 -3 1 -12 9 -21 8 -9 26 -38 41 -64 35 -63 62 -94 108 -124 21 -13 35 -28
32 -33 -3 -5 48 -35 114 -67 66 -32 121 -63 121 -69 0 -7 8 -14 18 -17 9 -2
26 -8 37 -12 l20 -7 -20 17 c-20 17 -19 17 5 9 61 -21 135 0 199 56 36 32 40
33 65 24 17 -6 22 -52 9 -70 -5 -5 0 -1 10 10 10 10 21 16 25 11 4 -4 -9 -20
-28 -36 -21 -18 -28 -29 -19 -29 32 0 61 37 57 72 -2 18 -7 37 -13 41 -5 4 9
6 32 4 23 -2 46 0 51 5 7 7 14 3 21 -11 7 -12 18 -21 25 -21 21 0 25 -22 11
-63 l-12 -36 41 -21 c23 -11 47 -20 53 -20 22 0 37 104 16 106 -7 1 -22 2 -34
3 -14 1 -19 6 -16 15 3 8 -1 13 -10 12 -11 -1 -16 9 -17 37 -1 39 8 44 49 28
28 -12 55 5 55 33 0 13 7 27 16 30 8 3 13 2 10 -3 -3 -5 1 -12 10 -15 8 -3 13
-2 10 2 -9 15 13 37 39 37 22 1 41 -22 37 -45 0 -3 6 -13 15 -22 8 -9 12 -22
8 -28 -3 -6 -2 -9 3 -8 10 3 106 -120 124 -158 5 -11 24 -25 41 -32 24 -9 28
-15 19 -24 -9 -9 -5 -16 18 -30 17 -10 37 -18 45 -18 8 0 15 -4 15 -10 0 -6
39 -11 93 -12 85 -1 87 -2 32 -7 -55 -6 -57 -7 -28 -14 37 -10 163 -5 156 5
-2 5 4 8 14 8 10 0 24 4 31 9 7 4 -12 6 -45 4 -66 -3 -61 2 8 12 28 3 58 16
75 30 16 14 40 25 54 25 30 1 62 23 68 48 3 9 5 37 6 61 1 34 8 48 29 67 29
25 36 70 18 117 -11 28 -38 57 -54 57 -8 0 -8 -3 1 -12 9 -9 6 -14 -11 -23
-43 -22 -94 36 -111 127 -6 34 -5 36 16 31 18 -4 20 -3 8 6 -12 8 -8 11 18 11
17 0 32 5 32 10 0 6 5 10 11 10 6 0 8 -7 5 -16 -10 -26 4 -62 31 -79 47 -31
93 0 95 63 1 24 5 27 35 28 l34 1 -27 -28 c-15 -16 -25 -29 -21 -29 12 0 57
23 57 29 0 4 13 7 29 7 28 2 28 1 10 -17 -11 -11 -19 -31 -20 -47 0 -15 -2
-40 -4 -55 -3 -23 -1 -27 12 -23 9 4 33 -5 56 -20 33 -22 42 -24 53 -12 35 36
20 135 -26 168 -15 11 -30 16 -34 13 -4 -4 -4 0 0 10 7 19 24 23 24 6 0 -6 7
-8 16 -5 8 3 12 2 9 -4 -3 -6 -2 -10 4 -10 5 0 12 4 15 9 3 5 19 14 35 19 43
15 88 -10 101 -58 9 -32 14 -37 32 -32 11 3 19 1 16 -4 -4 -5 16 -9 42 -9 38
0 54 -6 75 -25 24 -23 35 -25 133 -28 130 -4 171 11 185 68 13 52 4 95 -42
198 -39 85 -44 112 -21 112 5 0 16 -8 26 -18 10 -9 20 -16 23 -15 3 2 6 -4 6
-12 0 -26 24 -38 77 -41 51 -3 85 -24 72 -46 -3 -5 0 -15 6 -23 7 -8 9 -23 6
-32 -7 -16 -6 -17 9 -2 9 9 17 25 18 36 1 14 6 19 16 15 10 -4 12 -1 6 7 -5
10 -2 11 13 7 45 -14 202 169 202 235 0 26 -21 54 -33 43 -3 -3 -10 -3 -16 1
-7 4 -1 19 16 42 24 32 25 34 6 23 -12 -8 -26 -24 -31 -36 -19 -41 -162 -94
-257 -94 -112 0 -210 38 -287 112 -30 29 -35 40 -36 83 -2 50 7 77 24 76 5 0
19 2 32 6 21 5 21 6 6 18 -15 11 -15 13 7 28 13 10 42 17 65 17 39 0 43 -2 58
-40 9 -22 18 -40 21 -40 3 0 -3 21 -14 48 -10 26 -22 56 -26 67 l-7 20 17 -20
c16 -19 17 -19 10 13 l-7 34 29 -19 c15 -10 36 -27 46 -38 18 -20 18 -20 12 5
-5 24 -5 24 9 5 43 -58 48 -62 31 -28 -17 36 -19 47 -6 39 5 -4 5 10 0 32 -8
34 -6 39 21 64 17 15 30 33 30 40 0 10 3 9 9 -1 6 -9 9 11 9 55 -1 86 23 144
85 211 44 48 54 73 59 161 l2 33 18 -23 c10 -13 23 -38 30 -56 9 -23 17 -31
28 -26 32 13 119 20 141 11 42 -15 129 -3 148 21 15 20 18 21 45 7 15 -8 35
-15 43 -15 12 0 14 -8 8 -38 -6 -36 -6 -36 9 -15 9 12 40 32 69 46 60 27 130
84 121 98 -3 6 0 16 6 24 18 21 3 18 -31 -6 -35 -24 -35 -24 -8 35 21 49 38
186 23 186 -5 0 -17 -12 -26 -27 l-16 -26 2 50 c0 28 4 49 8 47 14 -9 58 28
58 48 0 49 -39 74 -69 46 -11 -11 -13 -10 -7 5 3 10 6 22 6 27 0 5 17 10 37
12 30 2 38 8 43 28 4 14 3 37 -2 50 -8 23 -10 23 -19 8 -11 -19 -39 -25 -39
-8 0 6 -6 10 -14 10 -8 0 -17 10 -21 23 -18 67 -29 97 -37 97 -4 0 -7 -3 -7
-7 1 -5 1 -21 0 -38 -2 -28 -3 -28 -11 -8 -12 30 -45 37 -116 24 -32 -5 -75
-11 -94 -13 -21 -1 -48 -13 -68 -30 -38 -32 -62 -35 -99 -10 -15 9 -24 12 -20
6 4 -7 1 -17 -7 -23 -8 -7 -17 -26 -20 -44 -4 -20 -30 -57 -71 -100 -36 -38
-65 -65 -65 -61 0 4 -12 -3 -27 -17 -21 -18 -24 -19 -13 -4 8 11 1 7 -17 -8
-21 -19 -33 -25 -38 -17 -5 8 -13 6 -26 -6 -41 -37 -81 -18 -99 46 -11 39 -5
49 54 92 l39 28 -39 0 c-21 0 -61 9 -89 19 l-50 19 -3 52 c-3 43 2 61 32 114
19 34 40 84 47 111 31 128 102 195 205 195 33 0 61 8 91 26 30 17 59 25 92 26
52 0 76 -9 131 -53 31 -24 106 -47 95 -29 -2 4 14 13 35 20 22 7 40 16 40 19
0 16 59 8 75 -9 28 -31 54 -25 71 15 7 19 14 44 14 55 0 11 6 20 13 20 7 0 3
8 -8 17 -20 15 -20 15 4 10 18 -4 21 -3 12 6 -17 17 -13 27 6 20 17 -7 17 -6
1 18 -16 26 -16 26 10 23 17 -2 20 -1 8 2 -19 6 -18 7 5 26 13 11 19 17 12 14
-6 -4 -18 0 -26 9 -13 13 -16 13 -21 -1 -4 -10 -2 -13 7 -8 6 4 8 3 4 -1 -10
-12 -37 -15 -37 -5 0 5 5 12 10 15 6 3 10 14 10 23 0 9 -10 -3 -23 -27 -12
-25 -29 -47 -37 -49 -12 -4 -11 -1 3 15 29 33 19 37 -20 7 -35 -25 -36 -25
-17 -3 38 44 38 55 -1 19 -21 -19 -34 -29 -30 -21 6 11 4 13 -9 8 -13 -5 -15
-3 -7 12 6 10 8 21 5 23 -2 3 4 11 13 19 16 13 17 12 4 -3 -10 -14 -10 -18 -1
-18 7 0 10 -7 6 -17 -4 -11 2 -8 13 7 14 18 17 28 9 37 -6 7 -7 13 -3 13 4 0
3 6 -3 13 -8 9 -8 20 2 38 20 39 9 53 -24 29 -18 -13 -31 -16 -35 -10 -3 5 -3
10 2 10 4 0 19 10 33 21 25 20 24 20 -20 -1 l-45 -21 39 36 c47 42 40 46 -12
8 l-37 -28 23 29 c12 15 19 33 15 39 -4 7 -8 6 -11 -3 -5 -18 -32 -50 -42 -50
-3 0 -5 15 -4 33 1 26 0 27 -3 4 -2 -15 -8 -25 -13 -22 -4 3 -10 -2 -13 -10
-4 -9 -1 -12 9 -8 10 4 12 0 7 -13 -6 -17 -5 -18 12 -4 11 9 16 10 11 3 -4 -7
-3 -13 2 -13 6 0 13 -7 16 -16 3 -9 2 -12 -5 -9 -5 4 -18 1 -27 -6 -14 -11
-15 -11 -4 1 21 24 13 34 -10 14 -22 -19 -22 -19 -8 0 13 17 13 19 0 14 -8 -3
-15 -17 -15 -31 1 -14 -1 -24 -4 -22 -6 7 -36 -38 -33 -49 2 -5 -3 -4 -11 3
-12 9 -16 7 -20 -10 -5 -20 -8 -21 -23 -8 -16 13 -17 12 -12 -8 4 -13 1 -26
-4 -30 -7 -3 -8 -1 -4 5 11 18 2 15 -53 -17 -28 -17 -58 -27 -69 -24 -11 2
-49 -3 -86 -12 -37 -9 -69 -15 -71 -13 -7 6 127 39 166 41 19 1 34 7 34 14 0
6 4 15 9 20 5 5 6 3 2 -4 -12 -22 11 -14 43 13 17 14 28 31 24 36 -3 6 -1 8 5
4 6 -3 18 13 28 41 10 25 20 41 22 35 2 -6 -5 -26 -14 -44 -15 -30 -16 -32 -1
-19 10 7 24 36 32 64 18 60 18 60 4 51 -7 -4 -7 1 1 16 6 12 14 19 17 16 8 -8
-7 -115 -18 -121 -5 -4 -9 -11 -9 -18 0 -6 7 -2 15 10 24 35 54 303 33 303 -7
0 -7 4 1 13 8 11 5 16 -14 25 -25 12 -33 36 -15 47 11 7 33 45 27 45 -3 0 -30
-34 -61 -75 -31 -41 -61 -75 -67 -75 -6 0 -2 8 9 18 19 15 62 84 62 98 0 4 -9
-4 -20 -17 l-20 -24 6 29 c5 19 3 27 -4 22 -6 -3 -13 -19 -17 -35 -9 -42 -55
-92 -88 -95 l-29 -3 35 36 c19 20 42 50 51 68 9 18 24 36 33 42 10 5 15 12 12
15 -8 8 -59 -32 -59 -47 0 -7 -19 -32 -41 -57 -22 -25 -36 -36 -30 -24 5 11
17 26 25 34 9 7 16 17 16 23 0 5 -9 2 -20 -8 -20 -19 -70 -30 -70 -16 0 4 7
16 15 27 13 16 14 16 9 1 -5 -13 -2 -16 14 -14 11 2 27 8 34 15 8 6 17 10 20
7 6 -7 61 72 64 92 2 11 -1 12 -7 6 -7 -7 -24 -7 -47 -1 -20 5 -44 10 -52 12
-8 2 -14 9 -12 15 3 16 -3 14 -98 -19 -98 -35 -93 -34 -85 -17 4 6 -1 3 -9 -7
-12 -15 -16 -16 -16 -5 0 8 -10 -1 -21 -18 -29 -46 -34 -41 -7 6 12 22 24 38
27 36 2 -3 13 0 24 6 15 9 18 8 12 -2 -6 -9 -3 -10 11 -5 10 5 33 12 49 16 68
17 101 42 149 113 l48 71 -17 51 c-10 27 -27 58 -39 67 -23 19 -41 24 -31 8
12 -20 6 -119 -9 -152 -9 -18 -32 -46 -52 -61 -93 -75 -210 -58 -234 35 -17
63 -37 90 -58 79 -9 -5 -42 -12 -72 -16 -42 -6 -50 -10 -35 -16 17 -6 15 -8
-10 -8 -23 -1 -27 -4 -15 -11 12 -8 12 -10 -5 -10 -15 0 -17 -2 -6 -9 11 -7
11 -9 0 -13 -8 -3 2 -12 24 -23 21 -10 36 -20 33 -22 -2 -3 -14 0 -25 7 -13 6
-21 7 -21 1 0 -5 10 -13 22 -17 35 -11 75 -43 87 -71 10 -22 9 -25 -4 -19 -13
4 -15 1 -10 -14 7 -23 2 -24 -28 -9 -20 11 -20 10 3 -16 25 -27 25 -27 3 -21
-13 4 -23 3 -23 -3 0 -5 -15 -13 -32 -16 -18 -4 -38 -11 -44 -16 -21 -17 -141
120 -123 138 8 8 7 13 -2 18 -8 6 -10 4 -4 -5 5 -9 4 -11 -4 -6 -6 4 -9 11 -6
15 2 5 -4 16 -15 26 -11 10 -17 21 -15 26 4 6 -31 92 -52 128 -1 2 -14 -6 -29
-18 -30 -23 -64 -27 -82 -9 -9 9 -12 8 -12 -7 0 -10 -3 -15 -7 -12 -8 9 -33
-60 -32 -93 0 -19 13 -33 55 -60 37 -23 56 -43 60 -60 3 -14 10 -44 16 -67 12
-48 3 -107 -13 -82 -6 10 -9 4 -9 -22 0 -20 -7 -42 -15 -49 -8 -7 -15 -21 -15
-32 0 -14 -5 -18 -15 -14 -10 4 -15 -1 -15 -14 0 -11 -6 -20 -14 -20 -8 0 -17
-7 -20 -16 -3 -9 -13 -14 -20 -11 -8 3 -16 2 -18 -4 -2 -5 -20 -12 -41 -16
-32 -5 -37 -3 -37 13 0 16 -2 16 -10 4 -14 -22 -21 -8 -27 55 -5 50 -8 56 -25
51 -16 -4 -19 -1 -15 16 5 19 4 19 -19 -3 -14 -13 -34 -23 -45 -21 -12 2 -22
-5 -28 -20 -8 -19 -10 -20 -10 -4 -1 18 -2 18 -20 2 -18 -16 -20 -16 -36 0
-32 33 -57 106 -52 153 3 25 1 38 -3 30 -7 -10 -12 -10 -23 -1 -7 7 -17 8 -22
4 -4 -4 -6 3 -3 14 4 17 2 20 -13 17 -27 -7 -52 50 -51 118 1 40 8 72 26 107
14 27 30 77 35 111 14 85 56 158 108 190 23 15 43 34 43 44 0 9 5 17 11 17 5
0 7 5 4 10 -4 7 2 9 17 5 34 -9 53 15 34 41 -14 18 -14 18 -13 0 1 -10 -4 -21
-12 -24 -10 -3 -12 1 -8 16 4 19 2 20 -14 11 -16 -8 -19 -6 -19 16 0 101 -93
314 -191 435 -59 74 -77 88 -148 117 l-36 15 26 -24z m99 -66 c0 -15 -2 -15
-10 -2 -13 20 -13 33 0 25 6 -3 10 -14 10 -23z m-137 -230 c-6 -24 -23 -30
-23 -9 0 13 21 39 26 34 2 -2 1 -13 -3 -25z m54 -54 c-3 -7 -5 -2 -5 12 0 14
2 19 5 13 2 -7 2 -19 0 -25z m97 0 c-4 -7 -17 -26 -29 -43 -28 -38 -45 -89
-45 -132 l0 -34 35 27 c20 15 38 24 41 21 3 -3 -8 -13 -24 -22 -16 -10 -34
-26 -40 -36 -14 -22 -30 -127 -33 -214 -1 -33 -5 -64 -8 -70 -9 -16 -10 -35
-2 -35 4 0 16 9 27 21 10 11 28 25 39 31 11 5 2 -8 -20 -29 -47 -44 -62 -71
-70 -121 -28 -181 -32 -205 -34 -167 0 22 15 148 34 280 19 132 38 294 42 360
4 66 9 109 11 96 3 -21 7 -18 38 28 19 28 37 51 40 51 3 0 2 -6 -2 -12z m-154
-134 c0 -25 -14 -32 -25 -14 -4 6 -2 17 4 24 6 7 7 17 3 21 -4 5 -1 5 6 1 6
-4 12 -18 12 -32z m224 11 c8 -21 -15 -56 -34 -53 -19 4 -25 35 -10 53 16 19
36 19 44 0z m-254 -155 c0 -5 -5 -10 -11 -10 -5 0 -7 5 -4 10 3 6 8 10 11 10
2 0 4 -4 4 -10z m16 -150 l27 -35 -32 35 c-34 38 -65 91 -75 130 -4 14 7 -2
23 -35 17 -33 42 -76 57 -95z m-144 41 c-1 -7 4 -24 13 -37 9 -14 13 -29 10
-35 -4 -5 -2 -16 5 -24 15 -18 -7 -32 -23 -16 -9 9 -7 10 8 5 17 -6 15 -2 -7
23 -29 30 -37 49 -15 37 6 -4 1 4 -12 19 -12 14 -20 31 -16 37 9 15 41 7 37
-9z m398 4 c0 -18 -20 -20 -20 -2 0 6 -9 1 -20 -13 -11 -14 -20 -21 -20 -16 0
15 32 46 47 46 7 0 13 -7 13 -15z m-70 -59 c0 -2 -8 -10 -17 -17 -16 -13 -17
-12 -4 4 13 16 21 21 21 13z m-346 -23 c8 -19 -10 -34 -31 -26 -16 6 -17 15
-1 31 16 16 25 15 32 -5z m92 -49 c-10 -27 -31 -15 -32 19 0 33 0 33 19 14 10
-10 16 -25 13 -33z m-56 -13 c0 -5 -7 -11 -15 -15 -9 -3 -15 0 -15 9 0 8 7 15
15 15 8 0 15 -4 15 -9z m-94 -20 c-4 -5 -2 -11 3 -13 4 -1 12 -14 15 -28 7
-24 6 -23 -13 4 -17 26 -20 46 -5 46 3 0 3 -4 0 -9z m214 -65 c0 -18 -42 -28
-55 -14 -7 8 -6 9 3 4 7 -4 12 -1 12 8 0 15 19 26 33 19 4 -2 7 -10 7 -17z
m-80 -51 c0 -8 -7 -15 -15 -15 -8 0 -15 7 -15 15 0 8 7 15 15 15 8 0 15 -7 15
-15z m70 -5 c0 -5 -2 -10 -4 -10 -3 0 -8 5 -11 10 -3 6 -1 10 4 10 6 0 11 -4
11 -10z m7 -72 c-3 -7 -5 -2 -5 12 0 14 2 19 5 13 2 -7 2 -19 0 -25z m103 -3
c0 -8 -7 -15 -15 -15 -16 0 -20 12 -8 23 11 12 23 8 23 -8z m1225 -95 c3 -5
-1 -10 -9 -10 -9 0 -16 5 -16 10 0 6 4 10 9 10 6 0 13 -4 16 -10z m-320 -20
c10 -11 16 -20 13 -20 -3 0 -13 9 -23 20 -10 11 -16 20 -13 20 3 0 13 -9 23
-20z m495 -4 c0 -2 -7 -7 -16 -10 -8 -3 -12 -2 -9 4 6 10 25 14 25 6z m-75
-26 c-10 -11 -22 -20 -27 -20 -10 0 24 38 36 39 5 1 1 -8 -9 -19z m80 -10 c-3
-5 -12 -10 -18 -10 -7 0 -6 4 3 10 19 12 23 12 15 0z m45 -25 c0 -8 -4 -15
-10 -15 -5 0 -7 7 -4 15 4 8 8 15 10 15 2 0 4 -7 4 -15z m-121 1 c-10 -9 -69
-36 -69 -32 0 7 52 35 64 36 5 0 7 -2 5 -4z m106 -57 c-5 -22 -4 -29 4 -25 6
4 11 13 11 21 0 8 9 13 20 12 30 -2 24 -29 -12 -63 -27 -23 -29 -24 -10 -3 26
29 31 60 6 35 -29 -29 -43 -20 -31 19 13 43 21 46 12 4z m285 21 c-8 -5 -19
-10 -25 -10 -5 0 -3 5 5 10 8 5 20 10 25 10 6 0 3 -5 -5 -10z m-1715 -50 c3
-5 -1 -10 -9 -10 -9 0 -16 5 -16 10 0 6 4 10 9 10 6 0 13 -4 16 -10z m1405
-64 c-6 -19 -18 -40 -27 -48 -9 -7 -14 -8 -11 -3 2 6 13 29 23 53 21 50 32 49
15 -2z m-49 -7 c-15 -14 -19 -24 -12 -28 7 -5 2 -16 -14 -31 -14 -13 -25 -28
-25 -34 0 -5 14 3 30 19 17 16 30 25 30 20 0 -4 21 13 46 38 25 26 50 44 55
41 6 -3 5 -12 -3 -22 -11 -14 -10 -15 7 -9 19 7 19 7 1 -8 -10 -8 -22 -12 -26
-10 -4 3 -13 -2 -20 -10 -7 -8 -16 -12 -21 -9 -5 3 -9 0 -9 -7 0 -7 8 -9 21
-6 24 7 25 8 -25 -32 -21 -17 -44 -31 -50 -31 -6 1 -2 6 9 13 19 11 32 37 19
37 -3 0 -17 -9 -31 -20 -14 -11 -29 -18 -33 -15 -4 3 -11 -2 -14 -11 -3 -8
-10 -13 -15 -9 -6 3 -15 -4 -21 -15 -6 -11 -16 -20 -22 -20 -6 0 -2 10 10 23
12 13 22 27 22 33 0 5 -32 -25 -71 -66 -39 -41 -64 -65 -56 -53 7 12 34 45 59
72 25 27 43 53 39 57 -3 4 -1 4 6 0 8 -4 22 9 39 34 33 49 44 53 14 5 -12 -19
-19 -35 -16 -35 12 0 56 52 51 60 -8 13 14 52 26 45 5 -4 9 -1 9 6 0 7 3 9 7
6 3 -4 -4 -17 -16 -28z m-91 -59 c-6 -11 -13 -20 -16 -20 -2 0 0 9 6 20 6 11
13 20 16 20 2 0 0 -9 -6 -20z m-93 -22 c-3 -8 -6 -5 -6 6 -1 11 2 17 5 13 3
-3 4 -12 1 -19z m-1507 -18 c0 -5 -2 -10 -4 -10 -3 0 -8 5 -11 10 -3 6 -1 10
4 10 6 0 11 -4 11 -10z m1484 -75 c-23 -49 -25 -40 -6 22 10 31 18 44 20 33 2
-11 -4 -35 -14 -55z m727 15 c-13 -11 -28 -20 -33 -20 -6 0 0 9 13 20 13 10
29 19 34 19 6 0 -1 -9 -14 -19z m-2271 -14 c0 -2 -8 -10 -17 -17 -16 -13 -17
-12 -4 4 13 16 21 21 21 13z m2265 -36 c3 -5 2 -10 -4 -10 -5 0 -13 5 -16 10
-3 6 -2 10 4 10 5 0 13 -4 16 -10z m-385 -19 c0 -5 -15 -20 -32 -32 l-33 -22
30 31 c34 35 35 36 35 23z m-80 -56 c-7 -8 -17 -15 -22 -15 -6 0 -22 -8 -36
-18 -31 -20 -111 -58 -99 -46 7 8 159 93 166 94 2 0 -2 -7 -9 -15z m-650 1 c0
-2 -8 -10 -17 -17 -16 -13 -17 -12 -4 4 13 16 21 21 21 13z m735 -16 c-3 -5
-12 -10 -18 -10 -7 0 -6 4 3 10 19 12 23 12 15 0z m-811 -57 c-32 -47 -40 -55
-24 -23 12 24 40 60 46 60 2 0 -8 -17 -22 -37z m-69 -10 c-3 -7 -8 -20 -12
-30 -4 -10 -2 -14 4 -10 7 5 9 0 6 -13 -3 -11 -9 -23 -14 -26 -5 -3 -9 -10 -9
-16 0 -6 12 -1 28 13 l27 24 -23 -26 c-33 -38 -61 -31 -99 25 -18 27 -33 52
-33 56 0 9 41 15 98 16 23 0 31 -4 27 -13z m1022 11 c-3 -3 -12 -4 -19 -1 -8
3 -5 6 6 6 11 1 17 -2 13 -5z m-1411 -111 c-6 -6 -36 9 -36 18 0 5 9 4 20 -3
10 -7 18 -14 16 -15z m274 8 c0 -5 -7 -11 -14 -14 -10 -4 -13 -1 -9 9 6 15 23
19 23 5z m360 -11 c-8 -5 -19 -10 -25 -10 -5 0 -3 5 5 10 8 5 20 10 25 10 6 0
3 -5 -5 -10z m-228 -16 c-12 -8 -22 -25 -22 -37 0 -18 -2 -19 -10 -7 -6 10 -3
21 12 37 12 13 26 23 32 23 6 0 0 -7 -12 -16z m178 10 c0 -9 -40 -42 -100 -81
-63 -42 -67 -45 -122 -96 -23 -20 -43 -35 -45 -33 -8 7 32 42 136 121 55 41
103 80 106 85 7 11 25 14 25 4z m-3080 -24 c0 -5 -5 -10 -11 -10 -5 0 -7 5 -4
10 3 6 8 10 11 10 2 0 4 -4 4 -10z m2729 -42 c-12 -11 -29 -16 -38 -13 -9 4
-28 9 -43 12 -26 5 -28 3 -28 -27 0 -28 -3 -32 -20 -27 -14 4 -31 -4 -52 -23
-17 -16 -35 -27 -40 -24 -4 3 -8 0 -8 -5 0 -6 -4 -11 -10 -11 -5 0 -10 7 -10
15 0 19 31 56 42 49 4 -3 8 0 8 6 0 6 5 8 11 5 6 -4 9 0 7 11 -5 30 115 78
125 51 3 -8 10 -7 23 4 10 9 26 19 34 21 24 8 24 -24 -1 -44z m-2573 7 l3 -29
-23 25 c-25 26 -25 39 1 35 9 -2 17 -14 19 -31z m3186 1 c7 5 8 3 4 -5 -5 -7
-14 -10 -22 -7 -8 3 -14 1 -14 -5 0 -6 -5 -7 -10 -4 -6 4 -7 11 -4 17 4 7 2 8
-5 4 -6 -4 -8 -12 -5 -18 4 -6 0 -14 -7 -19 -23 -15 -34 -10 -13 6 14 11 16
15 4 15 -12 0 -11 4 4 15 14 10 24 11 38 4 10 -5 24 -7 30 -3z m-334 -62 c-32
-30 -63 -52 -68 -49 -8 5 -5 13 6 26 18 20 103 79 113 79 3 0 -20 -25 -51 -56z
m136 31 c-4 -10 -15 -12 -37 -8 -43 8 -50 17 -9 11 18 -3 35 -1 38 4 8 13 14
9 8 -7z m59 -22 c-7 -2 -21 -2 -30 0 -10 3 -4 5 12 5 17 0 24 -2 18 -5z
m-3172 -76 c-13 -13 -26 -3 -16 12 3 6 11 8 17 5 6 -4 6 -10 -1 -17z m179 -12
c17 -9 30 -20 30 -24 0 -23 -14 -41 -31 -41 -23 0 -53 44 -45 65 7 19 10 19
46 0z m2253 -5 c-3 -11 -9 -20 -14 -20 -10 0 -12 24 -2 33 13 13 21 7 16 -13z
m330 -24 c-17 -30 -84 -65 -135 -72 -29 -4 -51 -4 -48 -1 13 13 82 47 98 47
22 1 57 29 66 55 7 19 8 19 17 3 6 -10 6 -24 2 -32z m-2913 -21 c0 -8 -4 -15
-10 -15 -5 0 -10 7 -10 15 0 8 5 15 10 15 6 0 10 -7 10 -15z m205 -15 c-3 -5
-11 -10 -16 -10 -6 0 -7 5 -4 10 3 6 11 10 16 10 6 0 7 -4 4 -10z m180 -36
c-9 -14 -13 -33 -10 -43 8 -25 -15 -32 -59 -20 -32 9 -35 12 -26 29 6 11 16
20 23 20 7 0 25 11 42 24 36 29 52 23 30 -10z m449 -12 c2 -4 -4 -8 -15 -8
-10 0 -19 4 -19 8 0 4 6 8 14 8 8 0 17 -4 20 -8z m-378 -9 c-10 -11 -36 -12
-36 -2 0 5 10 9 22 9 12 0 18 -3 14 -7z m-322 -12 c3 -5 -1 -14 -8 -20 -16
-13 -32 2 -21 19 8 12 22 13 29 1z m360 -10 c6 -9 -35 -24 -43 -15 -6 5 18 24
31 24 4 0 9 -4 12 -9z m-369 -111 c50 -31 118 -73 153 -94 35 -21 61 -41 57
-44 -3 -3 -11 0 -17 6 -7 7 -17 12 -22 12 -6 0 6 -11 26 -25 20 -14 41 -25 47
-25 5 0 12 -4 15 -9 4 -5 -4 -7 -16 -4 -19 4 -20 3 -8 -6 12 -9 11 -11 -7 -11
-17 0 -21 4 -16 18 4 12 -1 10 -15 -7 -12 -13 -22 -19 -22 -12 0 7 -5 9 -10 6
-6 -4 -8 -11 -4 -16 7 -13 -19 -7 -28 6 -5 6 -8 5 -8 -3 0 -7 -5 -10 -10 -7
-6 3 -13 -1 -16 -9 -4 -12 -16 -15 -40 -13 -18 3 -35 1 -36 -3 -2 -4 -14 -11
-27 -15 -17 -5 -22 -4 -19 6 3 8 11 14 19 15 27 2 49 16 49 33 0 13 -2 13 -9
2 -5 -7 -14 -10 -20 -7 -6 4 -8 12 -5 18 4 7 2 8 -4 4 -7 -4 -12 -14 -12 -22
0 -17 -21 -19 -38 -2 -9 9 -13 7 -18 -8 -9 -22 -23 -34 -42 -34 -8 0 -10 5 -5
13 11 18 13 38 2 31 -5 -3 -7 -10 -4 -15 4 -5 -4 -5 -19 1 -16 6 -26 5 -28 -1
-2 -6 -14 -1 -26 10 -22 18 -22 20 -5 30 17 10 17 10 -2 11 -11 0 -33 9 -50
20 l-30 20 25 1 c14 0 50 1 80 1 l55 0 -50 9 c-27 5 -60 11 -71 12 -14 1 -20
7 -16 16 3 9 1 12 -6 7 -6 -3 -13 -2 -17 4 -3 5 -11 10 -17 10 -6 0 -5 -7 3
-17 13 -16 12 -17 -3 -4 -10 7 -18 27 -18 44 0 28 1 29 18 14 16 -15 18 -15
19 2 1 14 -4 18 -21 17 -13 -2 -29 -6 -36 -11 -9 -6 -10 -2 -5 15 5 15 4 20
-4 16 -6 -4 -11 -4 -12 1 0 4 -2 18 -5 30 -2 12 1 25 8 29 8 5 9 1 4 -11 -7
-18 -6 -18 14 0 11 10 20 14 20 8 0 -5 14 -7 33 -4 l32 5 -30 8 c-24 6 -22 7
13 3 50 -4 53 -5 55 -34 1 -11 6 -22 12 -24 17 -7 85 5 85 14 0 4 16 -1 35
-12 19 -12 35 -19 35 -16 0 13 -68 44 -81 37 -8 -4 -27 -10 -43 -14 -23 -6
-27 -4 -23 8 4 9 2 16 -3 16 -6 0 -10 7 -10 15 0 8 7 15 16 15 9 0 12 -5 8
-12 -4 -6 -3 -8 4 -4 6 3 13 2 17 -4 3 -5 16 -10 28 -10 19 0 18 3 -10 20 -18
11 -33 22 -33 26 0 6 25 -8 165 -96z m160 42 c-11 -11 -27 17 -20 35 6 16 8
16 16 -6 5 -13 7 -26 4 -29z m2637 7 c-1 -18 -4 -34 -6 -36 -7 -7 -36 10 -30
18 3 5 -2 6 -10 3 -12 -5 -16 0 -16 18 0 32 6 37 38 33 24 -2 27 -7 24 -36z
m-2732 -19 c0 -5 -5 -10 -11 -10 -5 0 -7 5 -4 10 3 6 8 10 11 10 2 0 4 -4 4
-10z m344 -15 c3 -9 0 -15 -8 -15 -7 0 -13 7 -13 15 0 8 4 15 8 15 4 0 9 -7
13 -15z m2731 -2 c4 -10 19 -67 34 -126 l26 -108 24 22 c15 15 21 29 18 45 -3
20 -2 22 10 12 18 -15 53 -82 53 -103 0 -8 5 -15 10 -15 6 0 10 -5 10 -11 0
-5 -4 -8 -8 -5 -5 3 -9 -8 -10 -23 l-1 -29 24 24 c26 26 24 50 -3 57 -15 4
-15 5 -1 6 9 0 44 -26 78 -60 56 -56 69 -81 62 -122 -1 -5 4 -7 11 -4 7 2 12
10 10 16 -1 7 2 9 8 6 8 -5 7 -14 -3 -29 -14 -21 -13 -22 9 -22 25 0 33 11 12
18 -7 3 -8 7 -2 10 5 4 25 -12 44 -35 26 -31 34 -50 34 -78 -2 -64 -20 -75
-19 -11 0 55 -1 57 -26 57 -23 1 -25 -3 -23 -28 3 -24 1 -27 -10 -18 -19 16
-40 -19 -61 -100 -24 -91 -40 -124 -76 -161 -17 -18 -28 -27 -24 -20 3 7 9 58
11 114 3 66 9 105 17 110 8 5 8 11 2 16 -5 4 -11 23 -13 41 -3 46 -10 51 -32
24 -9 -12 -19 -20 -22 -18 -2 2 -5 -11 -6 -30 -2 -19 2 -35 8 -35 5 0 10 -17
9 -37 -1 -35 -2 -36 -10 -13 -8 22 -8 21 -4 -7 5 -37 -4 -71 -14 -54 -4 6 -17
-40 -30 -102 -27 -129 -34 -147 -61 -147 -12 0 -20 7 -20 18 -1 23 -24 52 -42
52 -25 0 -35 -21 -41 -86 -5 -68 -27 -118 -57 -134 -19 -10 -20 -8 -20 32 0
24 -5 50 -10 58 -5 8 -10 11 -10 5 0 -5 -5 -2 -11 8 -5 9 -7 22 -4 27 3 6 -1
7 -9 4 -9 -3 -16 -16 -16 -28 0 -18 -2 -19 -11 -6 -9 13 -10 12 -5 -3 3 -10 2
-25 -3 -35 -5 -9 -14 -60 -20 -112 -9 -84 -13 -98 -37 -118 -14 -13 -28 -21
-30 -19 -2 2 1 38 8 79 9 61 9 82 -2 107 -14 35 -39 40 -58 11 -7 -12 -23 -20
-39 -20 -21 0 -24 -3 -15 -12 19 -19 13 -152 -12 -275 -6 -27 -54 -93 -68 -93
-7 0 -8 17 -5 43 3 23 9 67 13 97 l7 55 -26 -24 c-14 -12 -30 -20 -37 -16 -6
3 -9 3 -8 -2 2 -5 -7 -19 -18 -31 -14 -15 -25 -48 -34 -100 -15 -94 -45 -164
-69 -160 -13 3 -16 18 -17 88 -1 47 -5 118 -9 158 -5 49 -4 72 3 72 14 0 25
53 23 117 -1 36 3 53 12 53 7 0 13 19 15 52 4 58 35 120 57 112 7 -3 16 -21
19 -40 4 -19 12 -34 18 -34 5 0 8 -7 5 -14 -4 -9 2 -17 14 -21 20 -7 24 -21
13 -49 -8 -20 -53 -21 -59 -1 -15 48 -16 48 -27 37 -9 -9 -7 -16 6 -31 9 -10
21 -32 25 -47 5 -19 17 -32 34 -38 37 -13 61 11 62 63 0 22 4 43 8 47 11 12 8
26 -5 18 -7 -5 -8 -3 -3 6 6 10 11 10 20 -3 11 -15 45 -24 45 -13 0 2 3 12 6
21 7 17 -15 18 -27 1 -4 -4 -10 -3 -13 3 -4 6 -3 11 2 11 15 0 23 28 10 36 -6
4 -8 3 -5 -3 4 -6 -2 -13 -14 -16 -16 -4 -18 -3 -8 9 9 11 9 14 -1 14 -9 0 -7
6 5 20 16 17 16 28 7 112 -6 53 -7 110 -2 133 4 22 8 32 9 22 0 -11 8 -43 17
-73 l16 -55 51 3 c51 3 52 4 61 40 7 26 4 63 -9 130 -25 131 -21 207 10 165
11 -16 18 -55 31 -188 5 -49 43 -149 57 -150 7 -1 19 -2 27 -3 8 0 23 8 33 19
19 20 19 23 7 165 -1 8 0 22 2 30 2 8 -3 14 -9 12 -7 -1 -13 1 -14 5 -1 16 -1
89 0 138 1 49 2 49 16 25 26 -45 33 -66 40 -113 5 -31 11 -44 19 -40 21 14 35
11 29 -5 -3 -10 2 -8 11 6 22 29 27 28 53 -13 20 -31 21 -36 7 -50 -8 -8 -22
-15 -30 -15 -8 0 -14 -4 -14 -10 0 -5 5 -10 11 -10 11 0 8 -25 -7 -64 -4 -11
-1 -16 11 -16 9 0 13 -4 10 -10 -3 -5 -2 -10 4 -10 6 0 13 11 17 25 3 14 12
29 20 33 18 10 37 177 23 204 -5 10 -14 16 -19 13 -4 -3 -11 1 -13 7 -3 7 -6
1 -6 -14 -1 -37 -34 -38 -57 -3 -14 21 -15 31 -5 51 14 30 15 450 2 507 -9 37
1 52 14 20z m-2815 -8 c0 -8 5 -15 12 -15 8 0 5 -7 -5 -17 -17 -17 -19 -17
-32 1 -11 14 -12 23 -4 33 15 17 29 17 29 -2z m2686 -161 c-3 -9 -20 -14 -46
-14 -37 0 -40 2 -40 28 0 36 11 51 35 49 18 -2 20 5 24 58 l4 60 14 -83 c8
-46 12 -90 9 -98z m1070 157 c-16 -6 -10 -10 27 -21 26 -7 48 -18 49 -24 0 -6
2 -17 2 -23 1 -7 6 -13 11 -12 6 0 9 10 7 22 -2 18 -1 19 7 7 14 -19 14 -53 1
-45 -12 7 -13 -7 -2 -20 4 -6 -6 2 -22 18 -26 24 -64 39 -52 19 3 -5 -15 -8
-39 -8 -24 1 -43 3 -42 6 1 3 -5 16 -12 29 -12 21 -11 23 3 18 43 -18 47 -16
11 4 l-40 23 30 7 c17 4 41 7 55 7 21 1 22 -1 6 -7z m-3882 -26 c5 -15 -12
-55 -24 -55 -15 0 -50 38 -50 55 0 11 9 14 35 12 19 -1 36 -6 39 -12z m3953 9
c-3 -3 -12 -4 -19 -1 -8 3 -5 6 6 6 11 1 17 -2 13 -5z m-1705 -56 c-9 -9 -12
-7 -12 12 0 19 3 21 12 12 9 -9 9 -15 0 -24z m-1462 12 c0 -5 -5 -10 -11 -10
-5 0 -7 5 -4 10 3 6 8 10 11 10 2 0 4 -4 4 -10z m2311 -29 c-14 -10 -32 -16
-40 -13 -11 4 -7 9 14 18 43 19 54 16 26 -5z m-3032 -28 c0 -30 -2 -34 -9 -18
-7 18 -8 19 -15 3 -4 -10 -11 -18 -16 -18 -16 0 22 69 39 70 1 0 2 -17 1 -37z
m328 5 c-3 -7 -5 -2 -5 12 0 14 2 19 5 13 2 -7 2 -19 0 -25z m-130 5 c2 -6 -8
-10 -22 -10 -21 0 -23 2 -14 14 13 15 31 13 36 -4z m-165 -15 c-7 -7 -12 -8
-12 -2 0 14 12 26 19 19 2 -3 -1 -11 -7 -17z m3548 -28 c16 -14 30 -34 31 -45
3 -41 -1 -66 -11 -60 -6 3 -14 -4 -19 -17 -6 -13 -10 -18 -11 -13 0 6 -7 -1
-15 -15 -9 -15 -14 -19 -15 -10 0 13 -2 13 -9 1 -5 -8 -28 -20 -50 -27 -35
-10 -41 -10 -41 3 0 8 -4 11 -10 8 -5 -3 -10 0 -10 8 0 23 38 127 60 162 25
40 58 42 100 5z m-2690 6 c0 -2 -8 -10 -17 -17 -16 -13 -17 -12 -4 4 13 16 21
21 21 13z m386 -23 c-10 -10 -19 5 -10 18 6 11 8 11 12 0 2 -7 1 -15 -2 -18z
m2754 23 c0 -3 -4 -8 -10 -11 -5 -3 -10 -1 -10 4 0 6 5 11 10 11 6 0 10 -2 10
-4z m-3379 -43 c13 -16 12 -17 -3 -4 -10 7 -18 15 -18 17 0 8 8 3 21 -13z
m1647 -30 c-4 -20 -54 -29 -77 -14 -23 15 -2 31 40 31 33 0 40 -3 37 -17z
m-2239 -3 c10 -5 29 -11 43 -14 14 -2 74 -32 133 -65 59 -34 110 -61 112 -61
3 0 16 -9 29 -19 37 -29 13 -34 -28 -6 -27 18 -38 21 -47 12 -9 -9 -11 -8 -6
8 7 20 7 20 -10 0 -11 -14 -25 -19 -46 -16 -21 2 -29 -1 -25 -8 4 -6 1 -11 -8
-11 -8 0 -16 6 -19 13 -3 9 -9 9 -27 -1 -24 -15 -30 -13 -35 15 -2 10 -4 20
-4 22 -1 2 -9 -3 -18 -11 -23 -20 -73 -32 -73 -18 0 6 7 13 15 16 8 4 12 11 8
17 -4 6 2 8 15 5 12 -4 22 -2 22 3 0 5 7 9 15 9 22 0 78 30 71 38 -4 3 -23 5
-42 4 -20 -2 -43 3 -52 10 -13 11 -15 10 -9 -4 9 -24 -17 -36 -88 -40 -59 -3
-59 -3 -65 27 -4 20 -8 26 -13 18 -5 -7 -5 -17 -2 -23 3 -6 -1 -7 -12 -4 -17
5 -17 5 0 -6 15 -10 15 -13 3 -26 -19 -18 -27 -18 -20 1 4 10 -3 18 -22 25
-16 6 -31 15 -34 20 -3 5 -12 5 -20 0 -12 -8 -12 -10 4 -10 12 0 16 -5 12 -16
-3 -9 -6 -17 -6 -20 0 -2 -9 4 -20 14 -11 9 -44 22 -73 28 l-52 12 45 2 c25 1
95 16 155 35 116 35 165 41 194 25z m272 -33 c-8 -8 -11 -7 -11 4 0 20 13 34
18 19 3 -7 -1 -17 -7 -23z m2494 24 c7 -12 -12 -24 -25 -16 -11 7 -4 25 10 25
5 0 11 -4 15 -9z m-2615 -11 c0 -5 -4 -10 -10 -10 -5 0 -10 5 -10 10 0 6 5 10
10 10 6 0 10 -4 10 -10z m1103 -58 c-15 -20 -27 -40 -26 -44 2 -4 -6 -12 -17
-18 -16 -9 -19 -8 -13 6 5 14 1 16 -20 12 -21 -4 -27 -1 -27 13 0 9 -3 24 -6
33 -4 10 2 17 20 22 14 3 26 10 26 14 0 5 19 13 43 17 54 11 59 -4 20 -55z
m1327 58 c0 -5 -7 -10 -15 -10 -8 0 -15 5 -15 10 0 6 7 10 15 10 8 0 15 -4 15
-10z m188 -98 c3 -9 -4 -22 -19 -33 -13 -10 -36 -28 -51 -39 -30 -23 -38 -21
-14 3 11 10 12 24 7 49 -5 20 -4 43 1 52 6 10 5 16 -2 16 -5 0 -10 7 -10 16 0
12 11 7 41 -17 22 -18 43 -39 47 -47z m-221 -3 c14 -5 23 -12 19 -16 -3 -3 -2
-11 4 -17 12 -16 -10 -60 -33 -64 -24 -5 -45 43 -30 67 6 10 10 36 9 57 -2 22
-1 26 1 11 3 -19 13 -31 30 -38z m-1437 31 c0 -5 -5 -10 -11 -10 -5 0 -7 5 -4
10 3 6 8 10 11 10 2 0 4 -4 4 -10z m-1323 -35 c-19 -19 -27 -19 -27 -1 0 8 8
16 18 18 24 6 27 1 9 -17z m-57 5 c0 -5 -2 -10 -4 -10 -3 0 -8 5 -11 10 -3 6
-1 10 4 10 6 0 11 -4 11 -10z m2459 -22 c1 18 19 15 30 -7 8 -14 6 -25 -10
-45 -11 -14 -26 -26 -33 -26 -19 0 -28 57 -14 83 11 21 11 21 19 2 4 -11 8
-14 8 -7z m-2224 2 c-3 -5 -12 -10 -18 -10 -7 0 -6 4 3 10 19 12 23 12 15 0z
m1154 -17 c-8 -10 -25 -38 -37 -63 -25 -51 -67 -79 -69 -48 -1 11 3 16 9 12 7
-5 8 -2 2 7 -11 18 -14 40 -5 34 5 -2 13 7 19 20 7 14 16 25 22 25 6 0 8 6 4
13 -6 9 -5 9 7 0 13 -10 19 -10 35 2 26 19 30 19 13 -2z m-1189 -3 c0 -5 -8
-10 -17 -10 -15 0 -16 2 -3 10 19 12 20 12 20 0z m1566 -9 c-6 -9 41 -34 52
-27 4 2 7 -6 7 -19 0 -14 -5 -21 -12 -18 -7 3 -13 1 -13 -5 0 -22 -30 -19 -54
5 -15 15 -26 20 -26 13 0 -7 -2 -11 -5 -8 -13 13 7 35 27 30 16 -4 20 -2 15
10 -3 9 -3 19 0 22 9 9 15 7 9 -3z m844 -21 c0 -5 -9 -11 -20 -14 -11 -3 -29
-9 -40 -12 -16 -4 -19 -2 -13 13 11 28 35 43 55 32 10 -5 18 -14 18 -19z
m-2090 4 c0 -8 -19 -13 -24 -6 -3 5 1 9 9 9 8 0 15 -2 15 -3z m2170 -14 c0 -5
-4 -10 -10 -10 -5 0 -10 5 -10 10 0 6 5 10 10 10 6 0 10 -4 10 -10z m-1000
-21 c-7 -11 -19 -29 -28 -40 -9 -11 -19 -29 -22 -42 -3 -12 -15 -27 -27 -32
-11 -6 -28 -17 -37 -24 -11 -9 -16 -10 -16 -2 0 6 5 11 11 11 5 0 7 5 3 11 -4
8 -12 2 -21 -15 -7 -14 -18 -26 -23 -26 -6 0 -10 -5 -10 -11 0 -5 6 -7 13 -3
6 4 5 -1 -5 -11 -9 -10 -28 -17 -42 -17 -15 0 -23 -5 -19 -11 4 -6 1 -7 -6 -3
-9 6 -8 13 3 29 9 12 22 37 30 55 9 18 19 32 23 31 23 -4 43 2 43 14 0 18 59
87 84 97 12 5 29 9 39 9 15 1 16 -2 7 -20z m-549 -46 c13 -17 13 -17 -6 -3
-11 8 -22 16 -24 17 -2 2 0 3 6 3 6 0 17 -8 24 -17z m819 -24 c0 -14 -17 -10
-23 5 -4 10 -1 13 9 9 7 -3 14 -9 14 -14z m440 17 c0 -2 -8 -10 -17 -17 -16
-13 -17 -12 -4 4 13 16 21 21 21 13z m-1950 -20 c0 -16 -18 -31 -27 -22 -8 8
5 36 17 36 5 0 10 -6 10 -14z m746 -18 l29 -33 -32 29 c-31 28 -38 36 -30 36
2 0 16 -15 33 -32z m-21 -8 c3 -6 -1 -7 -9 -4 -18 7 -21 14 -7 14 6 0 13 -4
16 -10z m2120 0 c3 -5 1 -10 -4 -10 -6 0 -11 5 -11 10 0 6 2 10 4 10 3 0 8 -4
11 -10z m-639 -13 c4 -3 4 -17 0 -31 -5 -22 -9 -24 -39 -15 -21 6 -33 6 -35
-1 -5 -14 -32 -40 -41 -40 -4 0 -8 7 -9 15 -1 8 -3 22 -4 30 -1 8 -7 15 -15
15 -10 0 -11 5 -3 19 8 17 19 19 75 17 36 -2 68 -5 71 -9z m-842 -42 c-4 -8
-10 -12 -15 -9 -11 6 -2 24 11 24 5 0 7 -7 4 -15z m1696 -28 c0 -2 -12 -14
-27 -28 l-28 -24 24 28 c23 25 31 32 31 24z m-1725 -17 c3 -5 1 -18 -4 -29 -8
-14 -7 -20 4 -25 8 -3 14 -13 14 -23 -1 -17 -2 -17 -6 0 -2 9 -11 17 -19 17
-21 0 -101 -69 -109 -94 -7 -20 -8 -20 -12 3 -3 16 6 38 28 70 64 89 88 107
104 81z m1512 -12 c-3 -8 -6 -5 -6 6 -1 11 2 17 5 13 3 -3 4 -12 1 -19z
m-1717 2 c0 -5 -4 -10 -10 -10 -5 0 -10 5 -10 10 0 6 5 10 10 10 6 0 10 -4 10
-10z m1010 -40 c0 -5 -4 -10 -10 -10 -5 0 -10 5 -10 10 0 6 5 10 10 10 6 0 10
-4 10 -10z m350 -6 c-8 -8 -22 -20 -32 -25 -14 -8 -18 -6 -18 7 0 10 5 14 15
10 8 -3 14 -2 14 2 -3 16 2 22 17 22 14 0 14 -3 4 -16z m-930 -1 c0 -5 -5 -15
-10 -23 -7 -11 -12 -12 -21 -3 -6 6 -8 16 -5 22 8 12 36 15 36 4z m940 -39
c-7 -8 -15 -12 -18 -9 -3 3 -11 0 -19 -6 -7 -6 -13 -7 -13 -2 0 5 11 16 25 23
14 7 25 18 26 24 0 6 3 5 6 -2 3 -7 -1 -19 -7 -28z m-430 -54 c0 -32 5 -62 10
-65 6 -3 10 -13 10 -22 0 -14 -3 -14 -20 2 -16 15 -20 31 -20 87 0 44 4 67 10
63 6 -3 10 -33 10 -65z m-272 25 c-3 -3 -9 2 -12 12 -6 14 -5 15 5 6 7 -7 10
-15 7 -18z m85 19 c7 -7 -2 -34 -12 -34 -4 0 -7 9 -8 20 -2 19 8 26 20 14z
m277 -59 c19 -23 4 -48 -25 -43 -13 3 -26 0 -28 -6 -3 -8 -8 -8 -16 0 -9 8 -6
17 9 37 24 30 42 34 60 12z m-600 -26 c0 -5 5 -7 10 -4 6 3 10 2 10 -3 0 -14
-26 -33 -33 -25 -11 10 -8 43 3 43 6 0 10 -5 10 -11z m86 -46 c-11 -11 -19 6
-11 24 8 17 8 17 12 0 3 -10 2 -21 -1 -24z m474 -13 c0 -5 -5 -10 -11 -10 -5
0 -7 5 -4 10 3 6 8 10 11 10 2 0 4 -4 4 -10z m850 -60 c0 -33 -17 -49 -26 -26
-3 9 -10 13 -15 10 -5 -3 -6 2 -3 10 3 9 10 16 15 16 5 0 9 7 9 16 0 8 5 12
10 9 6 -3 10 -19 10 -35z m-1074 -93 c-4 -39 -9 -73 -11 -76 -3 -3 -13 3 -23
13 -16 16 -16 18 2 32 17 12 18 14 3 14 -20 0 -20 -1 -6 55 8 33 15 42 26 38
13 -5 14 -18 9 -76z m-262 27 c20 -8 21 -54 2 -54 -20 0 -39 27 -32 45 6 17 8
17 30 9z m1284 -99 c-3 -3 -9 2 -12 12 -6 14 -5 15 5 6 7 -7 10 -15 7 -18z
m-948 -5 c0 -5 -2 -10 -4 -10 -3 0 -8 5 -11 10 -3 6 -1 10 4 10 6 0 11 -4 11
-10z m-86 -107 c-6 -77 -5 -95 6 -88 10 6 11 -11 6 -86 -7 -103 -21 -159 -39
-159 -35 1 -55 45 -31 71 11 13 18 50 24 141 7 105 26 218 37 218 2 0 0 -43
-3 -97z m717 -4 c-9 -23 -10 -22 -10 11 -1 23 2 31 9 24 7 -7 7 -19 1 -35z
m-929 -27 c-19 -19 -48 -6 -31 14 5 6 6 14 3 17 -3 3 -3 11 2 18 5 9 12 6 25
-10 17 -21 17 -23 1 -39z m-592 -16 c0 -8 -4 -17 -9 -21 -12 -7 -24 12 -16 25
9 15 25 12 25 -4z m1550 -139 c19 -32 7 -26 -37 17 l-42 41 16 35 15 35 19
-55 c10 -30 23 -63 29 -73z m-885 63 c-1 -14 -3 -31 -4 -37 0 -7 -5 -13 -11
-13 -11 0 -13 43 -3 79 8 30 22 8 18 -29z m-602 -5 c-3 -9 -8 -14 -10 -11 -3
3 -2 9 2 15 9 16 15 13 8 -4z m-60 -10 c-3 -9 -8 -14 -10 -11 -3 3 -2 9 2 15
9 16 15 13 8 -4z m1510 -62 c15 -11 23 -23 20 -27 -3 -3 -1 -6 6 -6 7 0 11 -8
9 -17 -2 -10 3 -23 12 -30 12 -10 11 -11 -10 -7 l-25 5 25 -15 c19 -11 27 -11
33 -3 6 8 7 6 4 -5 -3 -9 1 -22 9 -28 8 -7 14 -17 14 -23 0 -6 -12 1 -27 15
-16 14 -37 28 -48 32 -18 6 -19 5 -3 -7 10 -8 15 -16 13 -19 -3 -3 1 -11 10
-18 8 -7 15 -16 15 -21 0 -13 -23 -6 -38 11 -11 13 -12 12 -4 -4 5 -10 7 -27
5 -37 -5 -17 -7 -17 -26 -4 -12 8 -29 15 -39 15 -10 0 -27 14 -40 30 -12 17
-29 30 -37 30 -27 0 49 -68 84 -74 18 -4 38 -13 45 -21 14 -16 34 -10 27 9 -3
7 5 11 21 10 25 -1 46 -24 22 -24 -9 0 -7 -7 3 -24 14 -21 14 -25 2 -30 -8 -3
-15 -2 -15 2 0 4 -9 13 -20 19 -22 15 -53 6 -46 -12 3 -9 -2 -11 -15 -8 -15 4
-17 8 -8 19 10 12 9 13 -5 8 -9 -3 -16 -1 -16 5 0 6 5 11 11 11 5 0 7 5 4 10
-3 6 -11 10 -16 10 -6 0 -7 -4 -4 -10 3 -5 1 -10 -5 -10 -6 0 -9 -4 -5 -9 3
-5 1 -12 -4 -15 -5 -4 -12 -2 -16 4 -10 15 -25 2 -25 -22 0 -12 -3 -18 -7 -14
-12 12 -10 29 7 49 16 19 35 24 24 5 -4 -7 -3 -8 4 -4 17 10 3 32 -68 101
l-62 60 38 6 c22 3 53 4 69 2 28 -2 29 -1 12 12 -11 7 -26 11 -35 8 -12 -5
-14 -1 -9 18 4 13 7 29 7 35 0 11 28 12 46 1 14 -8 24 1 18 17 -7 20 29 13 59
-11z m-1593 7 c0 -5 -7 -10 -16 -10 -8 0 -12 5 -9 10 3 6 10 10 16 10 5 0 9
-4 9 -10z m303 -66 c-17 -13 -17 -15 1 -29 11 -8 15 -15 10 -15 -6 0 -15 5
-22 12 -9 9 -15 9 -24 -1 -8 -8 -8 -11 -2 -8 7 4 18 -1 25 -11 13 -15 12 -16
-3 -3 -17 12 -23 9 -19 -12 1 -5 -4 -7 -11 -4 -14 4 -14 16 -2 55 5 16 2 22
-10 22 -9 0 -16 6 -16 13 0 8 -4 7 -11 -3 -9 -13 -10 -13 -6 0 2 8 12 14 21
12 10 -2 27 9 39 24 l21 27 14 -32 c11 -30 11 -35 -5 -47z m1896 34 c-2 -2
-17 -14 -34 -28 l-30 -25 29 32 c16 18 32 31 34 28 3 -3 3 -6 1 -7z m-749 -28
c0 -5 -2 -10 -4 -10 -3 0 -8 5 -11 10 -3 6 -1 10 4 10 6 0 11 -4 11 -10z
m-1260 -50 c0 -5 -2 -10 -4 -10 -3 0 -8 5 -11 10 -3 6 -1 10 4 10 6 0 11 -4
11 -10z m1305 -123 c0 -6 -6 -12 -12 -14 -7 -3 -13 0 -13 6 0 6 -7 11 -15 11
-8 0 -15 -4 -15 -10 0 -5 -5 -10 -11 -10 -6 0 -7 5 -2 13 13 21 13 41 0 28 -6
-6 -19 -11 -28 -11 -25 0 -13 -36 14 -45 12 -4 25 -7 29 -6 17 2 2 -38 -16
-43 -24 -6 -39 13 -24 31 8 10 6 13 -6 13 -8 0 -18 11 -22 25 -3 14 -9 25 -13
25 -4 0 -5 15 -3 34 3 27 8 33 21 28 14 -5 14 -4 2 12 -14 17 -15 17 -28 0 -7
-10 -13 -14 -13 -9 0 5 7 17 16 27 16 17 20 15 78 -39 33 -31 61 -61 61 -66z
m-1347 105 c15 -10 5 -42 -13 -42 -15 0 -24 19 -17 38 5 14 12 15 30 4z m72
-6 c0 -3 -4 -8 -10 -11 -5 -3 -10 -1 -10 4 0 6 5 11 10 11 6 0 10 -2 10 -4z
m129 -10 c12 -8 11 -11 -4 -23 -25 -18 -32 -17 -38 6 -8 30 10 37 42 17z m298
-21 c7 -20 -2 -29 -21 -22 -9 4 -13 13 -10 22 8 19 23 19 31 0z m693 -14 c0
-3 -9 -17 -19 -30 -12 -16 -24 -22 -35 -18 -20 8 -18 38 3 45 9 3 11 0 6 -8
-5 -9 -4 -11 3 -6 7 4 12 14 12 21 0 9 6 12 15 9 8 -4 15 -9 15 -13z m-1220
-64 c0 -5 -4 -5 -10 -2 -5 3 -10 14 -10 23 0 15 2 15 10 2 5 -8 10 -19 10 -23z
m1750 29 c0 -2 -8 -10 -17 -17 -16 -13 -17 -12 -4 4 13 16 21 21 21 13z
m-1442 -12 c33 -9 27 -20 -20 -39 -23 -9 -51 -25 -62 -35 -96 -86 -110 -95
-91 -67 13 21 14 27 4 25 -28 -6 -21 40 10 63 17 12 28 26 25 30 -2 4 1 11 7
15 8 4 9 3 5 -4 -9 -15 0 -15 49 3 47 17 44 16 73 9z m311 -21 c20 -18 20 -23
8 -52 l-13 -31 -25 28 c-14 15 -40 39 -57 52 l-32 25 49 -1 c34 0 55 -7 70
-21z m535 -19 c3 -8 2 -12 -4 -9 -6 3 -10 10 -10 16 0 14 7 11 14 -7z m-1238
-21 c-10 -10 -19 5 -10 18 6 11 8 11 12 0 2 -7 1 -15 -2 -18z m1284 -33 c0 -5
-2 -10 -4 -10 -3 0 -8 5 -11 10 -3 6 -1 10 4 10 6 0 11 -4 11 -10z m68 -22 c3
-22 -1 -28 -17 -28 -25 0 -36 17 -21 34 8 11 8 15 -2 20 -7 3 -2 4 12 3 19 -1
26 -8 28 -29z m-960 -53 c11 -19 11 -19 12 5 0 24 1 24 20 -7 11 -18 23 -33
27 -33 14 1 50 35 62 59 7 12 15 20 18 17 3 -3 -5 -21 -17 -41 -15 -24 -20
-44 -16 -60 6 -25 6 -25 26 -5 11 11 24 20 28 20 14 0 8 -50 -8 -60 -8 -5 -16
-22 -17 -38 -3 -23 3 -35 23 -51 30 -24 28 -26 -12 -11 -31 12 -84 -6 -84 -29
0 -9 -4 -10 -12 -4 -31 22 -65 14 -97 -22 -17 -20 -31 -40 -31 -45 0 -6 -8
-10 -17 -10 -14 0 -12 5 9 28 33 35 48 65 48 96 0 31 -10 33 -41 5 l-24 -20
25 7 c25 7 25 7 6 -15 -18 -20 -20 -20 -38 -4 -17 15 -17 18 -2 34 9 10 25 21
36 25 13 4 18 13 16 27 -2 16 -15 26 -50 37 -56 17 -63 31 -14 23 45 -7 86 3
86 22 0 8 5 15 11 15 7 0 9 20 5 58 -4 38 -3 47 3 27 4 -17 13 -40 19 -50z
m1042 71 c0 -3 -4 -8 -10 -11 -5 -3 -10 -1 -10 4 0 6 5 11 10 11 6 0 10 -2 10
-4z m-1424 -28 c4 -7 3 -8 -4 -4 -7 4 -12 2 -12 -4 0 -6 -5 -8 -10 -5 -11 7
-4 25 10 25 5 0 12 -5 16 -12z m764 -14 c0 -8 -4 -12 -10 -9 -5 3 -10 10 -10
16 0 5 5 9 10 9 6 0 10 -7 10 -16z m120 6 c0 -5 -2 -10 -4 -10 -3 0 -8 5 -11
10 -3 6 -1 10 4 10 6 0 11 -4 11 -10z m-560 -40 c15 -27 -15 -40 -38 -16 -15
15 -15 18 -2 26 22 14 28 12 40 -10z m275 -50 c-10 -11 -22 -20 -28 -20 -5 0
1 9 14 20 31 25 37 25 14 0z m515 -31 c0 -5 -4 -9 -10 -9 -5 0 -10 7 -10 16 0
8 5 12 10 9 6 -3 10 -10 10 -16z m-846 -35 c9 -3 16 -10 16 -15 0 -6 -10 -4
-22 2 -21 11 -22 11 -10 -4 11 -13 10 -15 -5 -13 -10 2 -17 6 -15 9 1 4 2 12
2 17 0 11 11 13 34 4z m316 -8 c0 -2 -7 -7 -16 -10 -8 -3 -12 -2 -9 4 6 10 25
14 25 6z m-620 -121 c-7 -9 -15 -13 -19 -10 -3 3 1 10 9 15 21 14 24 12 10 -5z
m548 -116 l37 0 -44 -18 c-24 -10 -55 -16 -69 -13 -26 5 -26 5 -4 13 12 5 25
16 29 26 4 10 8 12 11 5 2 -7 20 -12 40 -13z m-118 -23 c0 -3 -4 -8 -10 -11
-5 -3 -10 -1 -10 4 0 6 5 11 10 11 6 0 10 -2 10 -4z m-470 -40 c0 -11 -19 -15
-25 -6 -3 5 1 10 9 10 9 0 16 -2 16 -4z"/>
<path d="M3590 4970 c0 -5 5 -10 11 -10 5 0 7 5 4 10 -3 6 -8 10 -11 10 -2 0
-4 -4 -4 -10z"/>
<path d="M3225 4740 c-3 -5 -2 -10 4 -10 5 0 13 5 16 10 3 6 2 10 -4 10 -5 0
-13 -4 -16 -10z"/>
<path d="M4924 4038 c-16 -18 -20 -25 -8 -15 11 9 24 15 27 12 4 -3 5 -2 2 2
-3 3 0 12 6 20 23 27 2 12 -27 -19z"/>
<path d="M4873 3975 c0 -8 4 -12 9 -9 4 3 8 9 8 15 0 5 -4 9 -8 9 -5 0 -9 -7
-9 -15z"/>
<path d="M916 3144 c-5 -13 -3 -14 6 -6 7 5 24 12 38 15 22 4 21 4 -6 6 -21 1
-34 -5 -38 -15z"/>
<path d="M948 3128 c5 -5 16 -8 23 -6 8 3 3 7 -10 11 -17 4 -21 3 -13 -5z"/>
<path d="M1190 3100 c-9 -6 -10 -10 -3 -10 6 0 15 5 18 10 8 12 4 12 -15 0z"/>
<path d="M1340 3020 c0 -6 7 -10 15 -10 8 0 15 2 15 4 0 2 -7 6 -15 10 -8 3
-15 1 -15 -4z"/>
<path d="M1254 3010 c-5 -5 -34 -11 -64 -13 l-55 -3 62 -2 c35 -1 65 3 68 9 9
14 1 21 -11 9z"/>
<path d="M1288 3003 c7 -3 16 -2 19 1 4 3 -2 6 -13 5 -11 0 -14 -3 -6 -6z"/>
<path d="M4560 2785 c-7 -9 -11 -18 -8 -20 3 -3 11 1 18 10 7 9 11 18 8 20 -3
3 -11 -1 -18 -10z"/>
<path d="M4423 2769 c-31 -11 -30 -50 2 -86 16 -18 23 -21 19 -10 -4 12 -2 17
7 15 11 -2 13 7 11 37 -4 49 -10 55 -39 44z m7 -18 c0 -6 -4 -13 -10 -16 -5
-3 -10 1 -10 9 0 9 5 16 10 16 6 0 10 -4 10 -9z"/>
<path d="M4755 2650 c-3 -5 -1 -10 4 -10 6 0 11 5 11 10 0 6 -2 10 -4 10 -3 0
-8 -4 -11 -10z"/>
<path d="M4303 2476 c-6 -7 -7 -19 -3 -26 5 -7 6 -20 3 -28 -4 -10 0 -13 13
-10 24 4 32 38 9 38 -12 0 -15 6 -10 20 7 23 5 25 -12 6z"/>
<path d="M4365 2250 c4 -6 11 -8 16 -5 14 9 11 15 -7 15 -8 0 -12 -5 -9 -10z"/>
<path d="M4140 2220 c0 -5 5 -10 11 -10 5 0 7 5 4 10 -3 6 -8 10 -11 10 -2 0
-4 -4 -4 -10z"/>
<path d="M3820 1850 c0 -5 5 -10 10 -10 6 0 10 5 10 10 0 6 -4 10 -10 10 -5 0
-10 -4 -10 -10z"/>
<path d="M1547 2869 c7 -7 15 -10 18 -7 3 3 -2 9 -12 12 -14 6 -15 5 -6 -5z"/>
<path d="M1744 2774 c3 -9 6 -21 6 -27 0 -7 5 -4 11 6 11 18 5 37 -13 37 -5 0
-7 -7 -4 -16z"/>
<path d="M4270 1646 c0 -2 7 -7 16 -10 8 -3 12 -2 9 4 -6 10 -25 14 -25 6z"/>
<path d="M4268 1613 c7 -3 16 -2 19 1 4 3 -2 6 -13 5 -11 0 -14 -3 -6 -6z"/>
<path d="M4175 1587 c-12 -10 -14 -16 -7 -21 17 -10 43 7 33 22 -6 9 -11 9
-26 -1z"/>
<path d="M2855 1560 c-3 -5 -1 -10 4 -10 6 0 11 5 11 10 0 6 -2 10 -4 10 -3 0
-8 -4 -11 -10z"/>
<path d="M3085 5370 c12 -20 -6 -30 -23 -13 -16 16 -17 15 -20 -7 -3 -17 4
-31 24 -47 31 -25 41 -22 55 14 11 29 -4 63 -27 63 -8 0 -12 -4 -9 -10z"/>
<path d="M3936 5363 c-6 -14 -9 -15 -15 -4 -6 9 -11 10 -15 2 -4 -6 -13 -8
-19 -4 -7 4 -4 -5 6 -21 14 -20 16 -31 8 -39 -10 -10 -15 0 -13 24 1 3 -5 6
-12 6 -22 0 -6 -36 25 -60 24 -17 29 -28 29 -63 0 -35 5 -47 35 -73 20 -17 39
-31 43 -31 22 0 44 30 49 66 4 33 1 45 -21 71 -19 23 -26 42 -26 75 0 25 -3
48 -6 51 -9 9 -46 -11 -66 -37 -10 -11 -18 -17 -18 -13 0 5 14 22 31 38 27 25
29 29 11 29 -11 0 -23 -8 -26 -17z m50 -152 c-9 -13 -46 -15 -46 -1 0 14 34
30 44 20 4 -4 5 -13 2 -19z"/>
<path d="M2936 5259 c-29 -106 -71 -173 -145 -233 -36 -29 -79 -60 -96 -68
-16 -8 -29 -20 -27 -26 1 -7 -2 -12 -7 -12 -5 0 -11 -9 -14 -21 -5 -19 -3 -20
31 -15 31 5 34 4 22 -6 -8 -7 -23 -25 -32 -40 -15 -22 -15 -28 -3 -38 10 -9
19 -9 36 0 26 15 86 8 129 -13 17 -9 38 -13 47 -10 10 4 14 2 10 -4 -4 -6 20
-29 52 -51 31 -23 82 -62 111 -89 29 -26 48 -38 42 -27 -6 12 -44 50 -84 85
-73 64 -99 91 -93 97 1 2 27 -20 56 -48 30 -29 62 -56 73 -62 17 -9 18 -7 12
26 -4 20 -18 59 -31 87 -22 49 -24 79 -3 79 5 0 6 5 3 10 -3 6 0 10 7 10 8 0
23 24 34 53 24 67 24 228 -1 294 -19 48 -24 51 -50 23 -20 -22 -36 -12 -51 34
-10 28 -11 26 -28 -35z m79 -99 c23 19 26 -69 4 -112 -19 -37 -39 -50 -39 -25
0 6 -7 3 -16 -8 -17 -22 -65 -29 -57 -8 3 7 9 13 14 13 5 0 9 5 9 11 0 6 -17
-3 -39 -20 -37 -29 -39 -30 -55 -12 -17 19 -12 56 6 45 6 -4 6 -9 -2 -14 -7
-4 -8 -10 -3 -13 6 -4 15 5 22 19 6 15 7 23 1 19 -16 -10 -12 5 11 36 11 16
25 27 30 24 5 -4 19 5 31 18 27 28 49 38 62 26 5 -5 15 -4 21 1z m-215 -149
c-5 -11 -15 -23 -21 -27 -6 -3 -3 5 6 20 20 30 30 35 15 7z m200 -208 c0 -22
-2 -25 -10 -13 -13 20 -13 40 0 40 6 0 10 -12 10 -27z m-20 -25 c0 -14 -19 1
-31 25 -12 22 -12 22 10 3 11 -11 21 -23 21 -28z m-105 22 c3 -5 -1 -10 -9
-10 -8 0 -18 5 -21 10 -3 6 1 10 9 10 8 0 18 -4 21 -10z m136 -57 c13 -16 12
-17 -3 -4 -17 13 -22 21 -14 21 2 0 10 -8 17 -17z"/>
<path d="M2886 5095 c-9 -26 -7 -32 5 -12 6 10 9 21 6 23 -2 3 -7 -2 -11 -11z"/>
<path d="M2935 5010 c-3 -5 -1 -10 4 -10 6 0 11 5 11 10 0 6 -2 10 -4 10 -3 0
-8 -4 -11 -10z"/>
<path d="M2080 5240 c0 -5 4 -10 9 -10 6 0 13 5 16 10 3 6 -1 10 -9 10 -9 0
-16 -4 -16 -10z"/>
<path d="M1920 5231 c0 -5 9 -7 20 -4 11 3 20 7 20 9 0 2 -9 4 -20 4 -11 0
-20 -4 -20 -9z"/>
<path d="M1860 5200 c-6 -11 -17 -20 -25 -20 -8 0 -15 -4 -15 -10 0 -15 15
-12 32 8 19 22 31 42 24 42 -3 0 -10 -9 -16 -20z"/>
<path d="M4224 5211 c7 -11 -30 -36 -66 -45 -37 -9 -35 -31 7 -73 37 -37 66
-38 93 -5 25 33 11 113 -23 126 -9 3 -14 2 -11 -3z"/>
<path d="M4645 5184 c9 -9 19 -13 23 -10 3 4 0 11 -8 16 -24 15 -33 11 -15 -6z"/>
<path d="M2450 5167 c0 -16 44 -60 52 -52 3 3 8 -1 12 -10 4 -12 0 -19 -14
-22 -23 -6 -23 -8 -10 -32 16 -30 38 -32 75 -7 19 13 56 29 82 36 59 14 75 26
97 70 17 34 17 34 -1 12 -18 -23 -26 -25 -105 -37 -52 -8 -121 8 -160 36 -21
14 -28 16 -28 6z"/>
<path d="M2025 5100 c3 -5 10 -10 16 -10 5 0 9 5 9 10 0 6 -7 10 -16 10 -8 0
-12 -4 -9 -10z"/>
<path d="M3871 5094 c10 -13 10 -17 -2 -25 -9 -6 -18 -4 -26 7 -10 14 -13 13
-23 -5 -14 -27 1 -56 40 -76 33 -17 70 -7 70 20 0 7 3 20 6 29 7 18 -38 66
-62 66 -14 0 -14 -2 -3 -16z"/>
<path d="M4334 5085 c-36 -36 -21 -81 38 -111 44 -23 68 -5 68 51 0 78 -56
110 -106 60z m42 -6 c3 -6 1 -16 -4 -21 -13 -13 -45 8 -36 23 7 12 31 11 40
-2z"/>
<path d="M1710 5081 c0 -6 4 -13 10 -16 6 -3 7 1 4 9 -7 18 -14 21 -14 7z"/>
<path d="M1736 5077 c3 -10 9 -15 12 -12 3 3 0 11 -7 18 -10 9 -11 8 -5 -6z"/>
<path d="M1501 4894 c0 -11 3 -14 6 -6 3 7 2 16 -1 19 -3 4 -6 -2 -5 -13z"/>
<path d="M1506 4855 c-3 -9 -6 -26 -5 -38 1 -14 4 -9 9 13 9 37 7 52 -4 25z"/>
<path d="M1152 4798 c-7 -7 -12 -16 -12 -21 0 -5 7 -1 16 8 9 9 14 18 12 20
-2 3 -10 -1 -16 -7z"/>
<path d="M4480 4791 c0 -5 -3 -16 -6 -25 -3 -9 -2 -16 4 -16 13 0 23 38 11 46
-5 3 -9 1 -9 -5z"/>
<path d="M3071 4714 c0 -11 3 -14 6 -6 3 7 2 16 -1 19 -3 4 -6 -2 -5 -13z"/>
<path d="M1340 4630 c35 -24 54 -31 30 -11 -14 11 -29 21 -35 21 -5 0 -3 -5 5
-10z"/>
<path d="M4135 4621 c-3 -5 -2 -12 3 -15 5 -3 9 1 9 9 0 17 -3 19 -12 6z"/>
<path d="M1400 4591 c0 -12 39 -35 46 -28 3 2 -7 12 -21 21 -14 9 -25 12 -25
7z"/>
<path d="M1380 4547 c31 -19 113 -73 184 -121 70 -48 130 -86 132 -84 4 5
-104 90 -109 86 -7 -6 -37 24 -32 32 3 4 -3 14 -13 21 -16 13 -16 13 -2 -5 22
-28 3 -20 -104 48 -50 31 -95 56 -100 56 -6 0 14 -15 44 -33z"/>
<path d="M1475 4530 c3 -5 11 -10 16 -10 6 0 7 5 4 10 -3 6 -11 10 -16 10 -6
0 -7 -4 -4 -10z"/>
<path d="M2676 4529 c3 -5 10 -6 16 -3 7 4 8 2 4 -4 -4 -8 -15 -8 -31 -2 -14
5 -25 6 -25 2 0 -11 51 -32 62 -26 15 9 5 37 -15 40 -9 1 -15 -2 -11 -7z"/>
<path d="M2947 4523 c-4 -3 -7 -11 -7 -17 0 -6 5 -5 12 2 6 6 9 14 7 17 -3 3
-9 2 -12 -2z"/>
<path d="M2860 4455 c-11 -13 -11 -19 2 -32 14 -14 17 -13 23 7 4 12 3 26 -2
31 -6 6 -15 4 -23 -6z"/>
<path d="M3226 4438 c10 -14 21 -24 23 -22 3 3 -6 15 -18 27 l-24 22 19 -27z"/>
<path d="M3061 4437 c-9 -12 -8 -16 3 -20 19 -7 32 11 19 24 -6 6 -14 5 -22
-4z"/>
<path d="M4310 4437 c0 -2 15 -14 33 -27 l32 -23 -24 26 c-21 23 -41 35 -41
24z"/>
<path d="M2585 4370 c2 -14 5 -31 5 -38 0 -8 9 -12 21 -10 16 2 23 11 25 31 3
26 0 28 -21 23 -14 -4 -26 -1 -29 7 -4 6 -4 1 -1 -13z"/>
<path d="M1510 4363 c8 -12 40 -33 72 -46 72 -32 76 -26 6 9 -29 14 -62 34
-72 43 -18 15 -18 15 -6 -6z"/>
<path d="M1155 4359 c-17 -26 -23 -81 -12 -109 13 -34 32 -41 22 -9 -4 12 -3
19 2 16 5 -3 8 7 5 22 -2 16 1 38 7 49 8 15 7 23 -3 31 -11 9 -16 9 -21 0z"/>
<path d="M3230 4295 c0 -8 4 -15 9 -15 5 0 9 -15 9 -34 0 -46 9 -58 35 -50 29
9 27 6 33 59 6 47 5 48 -20 41 -15 -4 -35 -2 -46 4 -16 9 -20 8 -20 -5z"/>
<path d="M3160 4254 c0 -9 -9 -18 -20 -21 -25 -7 -25 -10 -2 -31 10 -10 12
-13 5 -8 -9 6 -13 3 -13 -12 0 -11 6 -23 13 -25 10 -4 10 -6 0 -6 -7 -1 -13
-5 -13 -10 0 -12 54 -4 58 8 2 6 8 9 12 6 5 -3 19 4 31 16 15 15 18 24 10 32
-8 8 -11 6 -11 -7 0 -10 -5 -14 -11 -11 -6 4 -8 13 -5 21 3 8 -1 14 -9 14 -7
0 -17 5 -21 12 -5 7 -3 8 5 3 9 -5 9 -1 -1 14 -15 25 -28 27 -28 5z"/>
<path d="M2938 4248 c14 -14 16 -32 3 -24 -12 8 -34 -20 -27 -33 4 -5 2 -12
-3 -15 -5 -4 -12 2 -15 11 -3 11 -4 8 -3 -7 3 -36 37 -41 37 -5 0 18 4 24 13
19 6 -4 9 -4 5 1 -4 4 -3 14 3 21 13 16 5 44 -13 44 -9 0 -9 -3 0 -12z"/>
<path d="M3057 4253 c-12 -12 -7 -31 10 -37 25 -10 39 10 20 28 -17 18 -21 19
-30 9z"/>
<path d="M5225 4240 c-10 -11 -14 -20 -9 -20 5 0 2 -5 -6 -10 -13 -9 -13 -10
0 -10 8 0 26 10 40 21 21 17 22 19 3 10 -32 -16 -38 -13 -18 9 10 11 16 20 13
20 -3 0 -13 -9 -23 -20z"/>
<path d="M2425 4240 c3 -5 8 -10 11 -10 2 0 4 5 4 10 0 6 -5 10 -11 10 -5 0
-7 -4 -4 -10z"/>
<path d="M2475 4210 c-3 -5 -1 -10 4 -10 6 0 11 5 11 10 0 6 -2 10 -4 10 -3 0
-8 -4 -11 -10z"/>
<path d="M2815 4199 c-10 -15 1 -23 20 -15 9 3 13 10 10 16 -8 13 -22 13 -30
-1z"/>
<path d="M5060 4166 c-29 -33 -30 -37 -8 -20 25 18 53 53 46 58 -2 2 -19 -16
-38 -38z"/>
<path d="M3347 4168 c17 -19 48 -24 58 -9 7 13 -13 24 -46 25 -26 1 -26 0 -12
-16z"/>
<path d="M1478 4158 c3 -14 1 -19 -6 -14 -6 3 -13 2 -17 -4 -4 -6 -10 -8 -15
-5 -5 3 -11 -4 -15 -15 -3 -11 -11 -20 -16 -20 -6 0 -7 -4 -4 -10 3 -5 2 -10
-4 -10 -18 0 -23 -57 -8 -93 18 -42 50 -52 106 -32 23 8 41 11 41 8 0 -4 6 2
14 13 13 16 13 22 0 42 -14 21 -13 23 7 31 22 7 22 8 3 13 -12 3 -35 31 -52
62 -34 60 -44 69 -34 34z"/>
<path d="M3016 4163 c-11 -11 -6 -23 9 -23 8 0 15 4 15 9 0 13 -16 22 -24 14z"/>
<path d="M2475 4151 c-3 -5 -2 -12 3 -15 5 -3 9 1 9 9 0 17 -3 19 -12 6z"/>
<path d="M2483 4120 c-13 -5 -23 -15 -23 -21 0 -8 6 -7 18 2 16 13 16 12 3 -4
-13 -16 -13 -20 0 -28 8 -5 10 -9 5 -9 -5 0 -19 8 -30 18 -16 13 -18 14 -8 1
7 -9 10 -23 7 -30 -3 -8 4 -20 15 -27 17 -10 24 -10 45 4 27 18 31 40 13 79
-12 28 -13 28 -45 15z"/>
<path d="M2397 4103 c-11 -11 -8 -23 6 -23 8 0 14 7 14 15 0 16 -9 19 -20 8z"/>
<path d="M2837 4103 c-12 -11 -7 -23 9 -23 11 0 14 -5 10 -16 -5 -14 -4 -15 9
-4 17 14 21 35 5 25 -5 -3 -10 1 -10 9 0 17 -12 21 -23 9z"/>
<path d="M994 4092 c-6 -4 -13 -15 -17 -24 -4 -11 -12 -15 -22 -12 -9 4 -15 1
-15 -7 0 -8 -9 -1 -19 15 l-20 30 -6 -27 c-9 -34 19 -82 59 -101 35 -17 54
-11 67 21 21 55 3 125 -27 105z"/>
<path d="M2983 4085 c0 -8 4 -12 9 -9 5 3 6 10 3 15 -9 13 -12 11 -12 -6z"/>
<path d="M1206 4073 c-6 -14 -5 -15 5 -6 7 7 10 15 7 18 -3 3 -9 -2 -12 -12z"/>
<path d="M2953 4065 c-9 -10 -9 -16 0 -25 9 -10 8 -12 -5 -7 -10 3 -20 2 -23
-3 -4 -6 1 -10 10 -10 9 0 29 -7 45 -15 31 -16 85 -11 74 7 -3 5 -12 7 -20 4
-11 -4 -12 -2 -4 14 15 28 12 37 -5 14 -8 -10 -15 -14 -15 -8 0 7 -10 18 -23
27 -18 11 -25 12 -34 2z"/>
<path d="M2304 4048 c-4 -6 -3 -8 4 -4 6 3 13 2 17 -4 3 -5 1 -10 -5 -10 -6 0
-8 -5 -4 -11 10 -16 28 6 21 25 -7 19 -23 21 -33 4z"/>
<path d="M3230 4049 c0 -5 5 -7 10 -4 6 3 10 8 10 11 0 2 -4 4 -10 4 -5 0 -10
-5 -10 -11z"/>
<path d="M2760 4030 c0 -11 7 -20 15 -20 17 0 18 2 9 24 -9 23 -24 20 -24 -4z"/>
<path d="M1340 4029 c0 -7 -12 -8 -32 -4 l-33 7 25 -18 c14 -10 39 -26 56 -34
l31 -16 -10 32 c-10 31 -37 55 -37 33z"/>
<path d="M2647 4033 c-14 -13 -6 -43 13 -53 17 -9 20 -7 26 14 3 14 3 30 -1
35 -7 12 -28 14 -38 4z"/>
<path d="M2795 4013 c0 -15 4 -27 10 -26 15 3 16 17 2 37 -12 16 -13 15 -12
-11z"/>
<path d="M3120 4001 c0 -6 4 -13 10 -16 6 -3 7 1 4 9 -7 18 -14 21 -14 7z"/>
<path d="M5291 3994 c0 -11 3 -14 6 -6 3 7 2 16 -1 19 -3 4 -6 -2 -5 -13z"/>
<path d="M1580 3980 c-13 -8 -13 -13 2 -37 13 -21 24 -27 45 -25 52 5 71 12
77 28 5 13 3 14 -6 7 -7 -6 -33 -13 -58 -15 l-45 -6 34 15 c19 8 30 18 25 23
-15 15 -58 21 -74 10z"/>
<path d="M2765 3980 c-7 -12 2 -30 16 -30 12 0 12 27 0 35 -5 3 -12 1 -16 -5z"/>
<path d="M2707 3912 c-11 -12 -13 -22 -6 -35 6 -9 7 -17 4 -17 -4 0 0 -7 9
-15 19 -20 23 -19 41 9 33 50 -9 101 -48 58z"/>
<path d="M3380 3921 c0 -6 4 -13 10 -16 6 -3 7 1 4 9 -7 18 -14 21 -14 7z"/>
<path d="M2455 3910 c-3 -5 -1 -10 4 -10 17 0 13 -27 -4 -34 -21 -8 -19 -33 4
-46 29 -15 30 -14 28 33 -2 43 -20 76 -32 57z"/>
<path d="M2560 3890 c0 -5 5 -10 10 -10 6 0 10 5 10 10 0 6 -4 10 -10 10 -5 0
-10 -4 -10 -10z"/>
<path d="M2876 3861 c-4 -7 -5 -15 -2 -18 9 -9 19 4 14 18 -4 11 -6 11 -12 0z"/>
<path d="M2996 3861 c-4 -7 -5 -15 -2 -18 9 -9 19 4 14 18 -4 11 -6 11 -12 0z"/>
<path d="M2334 3845 c-8 -19 5 -38 22 -31 8 3 14 0 14 -6 0 -6 2 -9 5 -6 9 8
-13 58 -25 58 -6 0 -13 -7 -16 -15z"/>
<path d="M2224 3841 c4 -6 1 -14 -7 -17 -21 -8 -9 -44 14 -44 37 0 36 56 -1
68 -7 3 -10 0 -6 -7z"/>
<path d="M3371 3831 c-10 -6 -10 -10 -1 -16 13 -8 24 -1 19 14 -3 6 -10 7 -18
2z"/>
<path d="M2601 3813 c-7 -8 -16 -11 -22 -8 -14 9 -11 -31 6 -72 8 -20 13 -38
11 -40 -2 -3 -7 5 -11 17 -8 25 -50 54 -65 45 -5 -3 -10 -1 -10 4 0 19 -18 12
-25 -9 -4 -11 -11 -18 -16 -15 -5 3 -8 -15 -7 -40 2 -33 8 -49 20 -56 29 -16
21 -29 -19 -30 -21 0 -33 -3 -27 -5 7 -3 10 -14 7 -25 -8 -28 32 -68 60 -62
18 4 16 -1 -12 -26 l-35 -31 31 9 c17 5 40 14 50 21 17 11 17 11 -1 6 -15 -5
-17 -4 -7 8 8 10 9 16 1 21 -5 3 -10 13 -10 21 0 8 5 12 10 9 6 -3 10 -3 10 2
0 4 14 8 30 8 23 0 29 -4 24 -15 -16 -38 -16 -50 0 -50 10 0 16 9 16 25 0 25
23 35 35 15 9 -15 30 -2 50 32 13 22 15 33 7 36 -14 4 -15 86 -2 152 9 48 -5
73 -26 45 -15 -20 -24 -19 -24 3 0 21 -31 24 -49 5z m-96 -263 c3 -5 2 -10 -4
-10 -5 0 -13 5 -16 10 -3 6 -2 10 4 10 5 0 13 -4 16 -10z"/>
<path d="M797 3798 c7 -8 10 -18 6 -21 -11 -12 -43 -8 -43 5 0 9 -3 9 -12 0
-16 -16 13 -78 42 -87 28 -9 31 -4 37 49 5 39 3 46 -18 57 -21 11 -22 10 -12
-3z"/>
<path d="M2873 3794 c-8 -20 13 -42 27 -28 12 12 3 44 -11 44 -5 0 -12 -7 -16
-16z"/>
<path d="M3040 3804 c0 -2 10 -8 21 -15 17 -8 20 -8 17 2 -4 11 -38 23 -38 13z"/>
<path d="M2020 3773 c1 -20 43 -73 59 -73 15 0 18 32 7 63 -12 30 -26 36 -26
10 -1 -17 -1 -17 -14 0 -7 9 -16 17 -20 17 -3 0 -6 -8 -6 -17z"/>
<path d="M2730 3750 c-16 -39 -9 -46 21 -21 22 18 23 21 8 36 -15 15 -17 14
-29 -15z"/>
<path d="M3756 3743 c-4 -5 -13 -8 -19 -8 -15 0 -20 -26 -8 -44 12 -19 46 -5
59 25 7 14 12 27 12 29 0 8 -36 6 -44 -2z"/>
<path d="M2825 3730 c-3 -5 1 -10 9 -10 9 0 16 5 16 10 0 6 -4 10 -9 10 -6 0
-13 -4 -16 -10z"/>
<path d="M2145 3700 c3 -5 8 -10 11 -10 2 0 4 5 4 10 0 6 -5 10 -11 10 -5 0
-7 -4 -4 -10z"/>
<path d="M2830 3706 c0 -2 7 -7 16 -10 8 -3 12 -2 9 4 -6 10 -25 14 -25 6z"/>
<path d="M3614 3695 c-18 -13 -18 -14 4 -8 12 3 25 9 28 14 8 14 -10 11 -32
-6z"/>
<path d="M3860 3690 c0 -5 5 -10 11 -10 5 0 7 5 4 10 -3 6 -8 10 -11 10 -2 0
-4 -4 -4 -10z"/>
<path d="M3797 3683 c-4 -3 -7 -13 -7 -21 0 -12 3 -12 15 -2 8 7 15 16 15 21
0 11 -14 12 -23 2z"/>
<path d="M2846 3663 c-3 -4 -6 -10 -6 -14 0 -10 28 -20 34 -11 5 9 -20 32 -28
25z"/>
<path d="M2030 3639 c0 -18 2 -19 15 -9 8 7 15 16 15 21 0 5 -7 9 -15 9 -9 0
-15 -9 -15 -21z"/>
<path d="M1879 3621 c-8 -67 -1 -81 31 -61 9 6 17 5 21 -1 3 -6 6 7 5 28 -1
34 -4 38 -28 41 -16 2 -29 -1 -29 -7z m18 -23 c-3 -8 -6 -5 -6 6 -1 11 2 17 5
13 3 -3 4 -12 1 -19z"/>
<path d="M3645 3620 c-3 -5 -2 -10 4 -10 5 0 13 5 16 10 3 6 2 10 -4 10 -5 0
-13 -4 -16 -10z"/>
<path d="M2835 3600 c3 -5 11 -10 16 -10 6 0 7 5 4 10 -3 6 -11 10 -16 10 -6
0 -7 -4 -4 -10z"/>
<path d="M3071 3594 c0 -11 3 -14 6 -6 3 7 2 16 -1 19 -3 4 -6 -2 -5 -13z"/>
<path d="M3040 3590 c0 -5 5 -10 11 -10 5 0 7 5 4 10 -3 6 -8 10 -11 10 -2 0
-4 -4 -4 -10z"/>
<path d="M2330 3566 c0 -8 5 -18 10 -21 6 -4 7 -12 4 -18 -4 -7 1 -5 10 4 10
9 14 22 10 32 -8 21 -34 23 -34 3z"/>
<path d="M1836 3561 c-3 -5 1 -11 9 -15 9 -3 15 0 15 9 0 16 -16 20 -24 6z"/>
<path d="M3010 3529 c0 -11 4 -18 10 -14 5 3 7 12 3 20 -7 21 -13 19 -13 -6z"/>
<path d="M2611 3481 c-10 -6 -1 -9 32 -9 32 0 55 -7 76 -23 17 -12 33 -21 35
-18 3 2 -10 14 -27 26 -38 25 -96 37 -116 24z"/>
<path d="M5439 3473 c-13 -15 -12 -15 9 -4 23 12 28 21 13 21 -5 0 -15 -7 -22
-17z"/>
<path d="M2010 3461 c0 -7 -4 -9 -10 -6 -6 4 -7 -1 -3 -11 6 -15 7 -15 15 1 6
9 7 19 4 22 -3 4 -6 1 -6 -6z"/>
<path d="M5463 3463 c-21 -7 -15 -22 17 -38 26 -13 29 -13 24 0 -3 8 -10 13
-14 10 -5 -3 -10 3 -12 13 -2 11 -9 17 -15 15z"/>
<path d="M2481 3452 c-15 -5 -14 -35 1 -50 9 -9 9 -12 0 -12 -7 0 -12 3 -12 8
0 4 -10 13 -22 21 -22 13 -22 13 1 -13 14 -14 32 -26 42 -26 10 0 21 -4 24
-10 9 -14 -22 -13 -48 2 -12 7 -36 17 -54 24 -25 9 -30 8 -26 -2 3 -7 14 -16
25 -20 17 -5 18 -8 7 -15 -9 -7 -1 -8 22 -3 23 3 39 2 44 -5 3 -6 11 -9 16 -6
5 4 9 2 9 -3 0 -10 -85 -8 -120 3 -15 5 -19 10 -11 15 8 4 2 11 -19 20 -17 7
-33 10 -36 7 -10 -9 7 -29 20 -24 7 3 13 -1 13 -8 0 -9 -11 -12 -36 -9 l-36 4
33 -12 c31 -11 32 -11 10 -22 -25 -13 -42 -62 -25 -70 7 -2 5 -5 -4 -5 -9 -1
-19 -8 -23 -16 -3 -8 -10 -15 -16 -15 -6 0 -8 4 -5 10 3 6 -1 7 -10 4 -11 -5
-13 -10 -5 -19 13 -15 53 -28 44 -14 -3 6 5 7 20 3 21 -5 26 -3 26 13 0 11 11
25 24 33 13 7 26 20 29 30 4 14 15 17 61 16 31 0 56 3 56 8 0 4 7 6 15 2 8 -3
19 2 24 12 6 9 11 13 11 8 0 -5 -7 -17 -15 -26 -8 -9 -16 -27 -17 -41 -3 -20
1 -24 22 -21 13 1 28 8 32 15 6 9 8 8 9 -3 1 -8 1 -18 0 -22 0 -5 8 -8 19 -8
29 0 38 30 14 48 -16 12 -16 14 -1 9 11 -4 17 -1 17 7 0 8 7 17 16 20 10 4 13
13 9 27 -5 16 -4 20 6 15 8 -4 5 0 -5 8 -27 22 -38 20 -32 -6 3 -13 3 -17 0
-10 -3 6 -12 12 -20 12 -8 0 -14 5 -14 12 0 9 -3 9 -12 0 -7 -7 -21 -11 -32
-11 -17 1 -18 2 -4 6 14 4 16 8 7 24 -5 11 -15 16 -21 13 -6 -4 -8 -3 -4 4 3
6 2 13 -4 17 -7 4 -7 12 0 25 5 10 10 20 10 22 0 5 -35 5 -49 0z"/>
<path d="M2162 3418 c-10 -33 -10 -33 -11 -5 -1 33 -17 36 -25 3 -4 -18 -11
-23 -27 -19 -29 8 -104 -18 -87 -29 10 -8 10 -11 1 -15 -7 -2 -13 -9 -13 -14
0 -6 5 -7 12 -3 8 5 9 2 5 -10 -5 -11 -3 -15 5 -10 8 5 9 2 5 -9 -3 -9 -1 -19
5 -23 6 -4 8 -3 5 3 -4 6 5 13 20 16 26 5 26 4 8 -9 -10 -8 -14 -14 -9 -14 14
0 34 22 34 37 0 7 8 21 18 31 15 15 21 16 30 5 7 -7 12 -15 12 -18 -1 -20 1
-25 8 -25 12 0 46 116 38 129 -12 19 -23 12 -34 -21z m-92 -42 c0 -2 -7 -6
-15 -10 -8 -3 -15 -1 -15 4 0 6 7 10 15 10 8 0 15 -2 15 -4z"/>
<path d="M3152 3435 c-9 -16 -13 -17 -21 -6 -7 11 -9 11 -13 0 -12 -37 22 -70
48 -48 11 9 14 9 14 0 0 -7 4 -9 10 -6 5 3 7 0 4 -8 -6 -17 0 -21 40 -31 l30
-7 -27 33 c-14 18 -30 32 -36 31 -6 -2 -11 6 -11 18 0 11 -4 18 -9 14 -5 -3
-11 3 -13 12 -3 16 -5 16 -16 -2z"/>
<path d="M5417 3437 c-6 -17 11 -47 28 -47 8 0 12 -6 9 -13 -6 -16 36 -37 71
-37 38 0 30 27 -14 50 -22 11 -42 24 -46 30 -12 19 -43 31 -48 17z m53 -33 c0
-2 -9 0 -20 6 -11 6 -20 13 -20 16 0 2 9 0 20 -6 11 -6 20 -13 20 -16z m31
-42 c-7 -2 -18 1 -23 6 -8 8 -4 9 13 5 13 -4 18 -8 10 -11z"/>
<path d="M2670 3421 c0 -10 30 -24 37 -17 3 3 2 9 -2 15 -8 13 -35 15 -35 2z"/>
<path d="M1897 3396 c-10 -8 -14 -17 -8 -20 8 -5 41 18 41 30 0 8 -15 3 -33
-10z"/>
<path d="M2850 3376 c0 -28 17 -43 32 -28 6 6 4 15 -6 24 -8 9 -12 18 -9 22 4
3 1 6 -5 6 -7 0 -12 -11 -12 -24z"/>
<path d="M5345 3389 c-5 -5 -30 -25 -53 -44 -24 -19 -41 -35 -36 -35 4 0 -1
-9 -10 -19 -23 -25 -14 -28 67 -23 75 4 83 11 73 65 -8 42 -27 69 -41 56z"/>
<path d="M2224 3320 c0 -24 11 -26 20 -4 8 22 8 24 -7 24 -7 0 -13 -9 -13 -20z"/>
<path d="M2246 3263 c-6 -14 -5 -15 5 -6 7 7 10 15 7 18 -3 3 -9 -2 -12 -12z"/>
<path d="M3180 3261 c0 -6 4 -13 10 -16 6 -3 7 1 4 9 -7 18 -14 21 -14 7z"/>
<path d="M3264 3261 c4 -6 2 -11 -3 -11 -6 0 -11 -7 -11 -16 0 -9 7 -14 18
-12 20 4 23 39 3 46 -8 3 -11 0 -7 -7z"/>
<path d="M5044 3232 c-19 -13 -24 -40 -8 -46 8 -3 17 1 20 8 3 8 12 17 20 20
10 4 13 2 8 -7 -6 -9 -5 -9 8 0 8 7 18 10 22 6 4 -4 4 0 0 10 -6 17 -49 23
-70 9z"/>
<path d="M3123 3199 c17 -10 17 -12 -8 -25 -15 -8 -36 -14 -46 -14 -25 0 -24
-21 3 -56 29 -37 38 -44 66 -44 29 0 47 38 38 84 -8 40 -29 66 -54 66 -15 -1
-15 -2 1 -11z"/>
<path d="M2227 3166 c-3 -6 4 -13 14 -13 22 -2 25 12 5 20 -8 3 -16 0 -19 -7z"/>
<path d="M2146 3153 c-6 -14 -5 -15 5 -6 7 7 10 15 7 18 -3 3 -9 -2 -12 -12z"/>
<path d="M2485 3160 c-16 -7 -17 -9 -3 -9 9 -1 20 4 23 9 7 11 7 11 -20 0z"/>
<path d="M2180 3130 c-9 -6 -10 -10 -3 -10 6 0 15 5 18 10 8 12 4 12 -15 0z"/>
<path d="M2315 3050 c3 -5 8 -10 11 -10 2 0 4 5 4 10 0 6 -5 10 -11 10 -5 0
-7 -4 -4 -10z"/>
<path d="M796 2951 c-50 -33 -52 -49 -15 -87 42 -44 70 -42 83 5 7 26 7 36 -2
39 -7 2 -12 10 -12 18 0 8 -4 14 -10 14 -5 0 -7 7 -4 15 8 20 -5 19 -40 -4z
m-19 -46 c0 -8 -4 -15 -9 -15 -10 0 -11 14 -1 23 9 10 10 9 10 -8z"/>
<path d="M4709 2883 c-13 -16 -12 -17 4 -4 16 13 21 21 13 21 -2 0 -10 -8 -17
-17z"/>
<path d="M944 2784 c7 -15 -20 -38 -34 -29 -20 12 -10 -24 12 -39 23 -17 33
-14 48 14 7 14 5 24 -11 42 -11 12 -18 18 -15 12z"/>
<path d="M909 2523 c27 -39 48 -55 31 -23 -11 20 -10 22 4 17 10 -4 15 -3 11
3 -3 6 -14 10 -24 10 -9 0 -23 6 -31 13 -7 6 -3 -2 9 -20z"/>
<path d="M5066 2489 c3 -5 -4 -9 -16 -9 -28 0 -91 -33 -120 -63 -21 -22 -37
-72 -19 -61 4 2 0 -10 -9 -28 -8 -18 -18 -57 -21 -88 l-6 -55 -6 50 -6 50 -1
-66 c-1 -36 5 -88 13 -115 18 -61 18 -66 -1 -34 -14 23 -14 23 -9 3 8 -29 -4
-51 -16 -32 -6 10 -8 7 -7 -10 3 -28 -14 -37 -34 -19 -7 7 -19 14 -26 16 -40
8 114 -175 184 -219 26 -15 37 -17 59 -9 14 5 42 10 61 10 19 0 37 6 39 13 9
26 13 67 6 63 -4 -3 -13 -1 -21 4 -9 6 -20 4 -30 -5 -9 -8 -32 -18 -51 -22
-30 -5 -32 -4 -22 9 7 8 11 17 8 19 -2 3 4 10 14 16 16 10 18 9 13 -9 -5 -20
-4 -20 26 2 38 28 40 34 10 25 -22 -6 -22 -5 -5 9 17 13 23 43 26 134 1 33 2
33 44 31 45 -2 95 8 114 23 13 10 3 47 -32 120 -15 31 -20 35 -36 25 -27 -17
-32 -3 -20 50 6 26 12 67 14 90 2 38 6 45 35 58 17 9 32 17 32 18 0 1 -18 1
-40 -1 -36 -4 -40 -6 -36 -29 4 -22 3 -23 -11 -11 -9 7 -14 8 -10 2 8 -13 -19
-27 -34 -18 -16 9 -10 21 13 27 12 4 19 10 14 14 -11 12 -87 32 -80 22z m-136
-99 c0 -5 -5 -10 -11 -10 -5 0 -7 5 -4 10 3 6 8 10 11 10 2 0 4 -4 4 -10z"/>
<path d="M1880 2423 c-86 -20 -181 -68 -236 -119 -24 -23 -44 -39 -44 -37 0 9
-47 -53 -77 -102 -47 -77 -56 -116 -51 -224 4 -77 10 -105 29 -141 38 -69 46
-76 69 -55 11 10 20 23 20 30 0 17 35 46 45 38 4 -5 5 0 2 10 -4 11 -1 17 8
17 8 0 15 5 15 11 0 5 5 7 12 3 8 -5 9 -2 5 9 -4 11 -1 17 9 17 8 0 17 -7 20
-15 3 -8 14 -17 25 -20 11 -4 17 -10 14 -15 -3 -5 11 -7 31 -5 19 2 36 5 37 7
1 1 8 14 15 27 8 12 9 20 3 17 -7 -5 -9 3 -5 24 5 24 3 30 -10 30 -10 0 -24
-7 -33 -16 -22 -21 -39 -3 -23 25 6 12 9 25 7 29 -8 12 30 45 38 32 5 -8 11
-8 21 1 11 9 14 8 14 -7 0 -15 2 -16 9 -5 7 12 10 11 14 -5 2 -11 4 -8 3 7 -2
31 23 53 40 35 8 -8 7 -15 -2 -23 -6 -7 -15 -9 -18 -6 -3 4 -6 1 -6 -6 0 -8 7
-10 20 -6 13 4 22 1 26 -9 3 -9 10 -14 14 -11 5 3 14 -3 20 -12 8 -13 10 -14
9 -3 -1 8 1 27 5 43 6 18 3 35 -6 50 -13 19 -12 24 3 39 16 15 18 15 32 -5 13
-19 18 -20 37 -9 19 12 22 11 27 -9 6 -20 7 -20 18 -5 7 9 27 18 45 21 17 2
44 6 59 10 22 5 32 0 54 -25 15 -16 31 -30 35 -30 15 0 62 52 62 69 0 27 26
44 54 37 67 -17 20 102 -73 185 -61 54 -148 93 -243 109 -82 13 -119 12 -198
-7z m121 -236 c-10 -9 -11 -8 -5 6 3 10 9 15 12 12 3 -3 0 -11 -7 -18z m-51
-101 c0 -2 -7 -7 -16 -10 -8 -3 -12 -2 -9 4 6 10 25 14 25 6z m-16 -41 c-4 -8
-11 -12 -16 -9 -6 4 -5 10 3 15 19 12 19 11 13 -6z m-199 -145 c3 -5 1 -10 -4
-10 -6 0 -11 5 -11 10 0 6 2 10 4 10 3 0 8 -4 11 -10z"/>
<path d="M5306 2426 c3 -9 1 -16 -5 -16 -6 0 -11 5 -11 10 0 6 -4 10 -10 10
-17 0 -11 -46 8 -63 40 -36 73 -8 50 41 -14 28 -42 44 -32 18z"/>
<path d="M2086 2043 c-3 -4 -6 -16 -6 -27 -1 -20 -1 -20 -14 2 -11 21 -14 22
-26 7 -15 -18 0 -64 22 -66 7 0 23 -2 35 -3 12 -1 20 1 17 5 -2 4 0 10 6 14 5
3 10 13 10 21 0 8 -4 13 -9 10 -5 -4 -7 2 -4 13 5 18 -19 36 -31 24z"/>
<path d="M5495 2039 c-4 -6 -5 -12 -2 -15 2 -3 7 2 10 11 7 17 1 20 -8 4z"/>
<path d="M1790 1955 c0 -9 5 -15 11 -13 6 2 11 8 11 13 0 5 -5 11 -11 13 -6 2
-11 -4 -11 -13z"/>
<path d="M2243 1946 c5 -14 3 -17 -8 -12 -8 3 -15 2 -15 -3 0 -13 11 -20 26
-14 17 6 18 29 2 39 -8 5 -9 2 -5 -10z"/>
<path d="M2107 1934 c-4 -4 -7 -16 -7 -26 0 -20 25 -25 36 -7 8 13 -19 43 -29
33z m18 -14 c3 -5 1 -10 -4 -10 -6 0 -11 5 -11 10 0 6 2 10 4 10 3 0 8 -4 11
-10z"/>
<path d="M4735 1927 c-15 -19 -17 -40 -4 -31 9 5 10 0 6 -16 -4 -15 2 -30 19
-49 13 -14 24 -22 24 -18 0 4 9 3 21 -3 26 -14 49 3 49 35 0 25 -24 50 -38 41
-6 -3 -9 2 -8 12 0 9 -5 16 -11 15 -7 -2 -13 4 -13 12 0 18 -31 19 -45 2z"/>
<path d="M1690 1863 c0 -6 8 -17 18 -24 16 -13 16 -13 2 6 -8 11 -16 22 -17
24 -2 2 -3 0 -3 -6z"/>
<path d="M1855 1860 c-8 -14 7 -35 25 -35 21 0 31 17 18 32 -12 15 -34 17 -43
3z m35 -4 c0 -2 -7 -7 -16 -10 -8 -3 -12 -2 -9 4 6 10 25 14 25 6z"/>
<path d="M2430 1860 c0 -5 5 -10 11 -10 5 0 7 5 4 10 -3 6 -8 10 -11 10 -2 0
-4 -4 -4 -10z"/>
<path d="M1659 1824 c-16 -20 -1 -48 28 -52 27 -4 35 20 17 47 -18 25 -27 26
-45 5z"/>
<path d="M1616 1788 c3 -5 10 -6 15 -3 13 9 11 12 -6 12 -8 0 -12 -4 -9 -9z"/>
<path d="M5068 1793 c6 -2 18 -2 25 0 6 3 1 5 -13 5 -14 0 -19 -2 -12 -5z"/>
<path d="M1864 1781 c4 -5 1 -12 -4 -14 -6 -3 -5 -4 2 -3 15 3 23 26 8 26 -6
0 -9 -4 -6 -9z"/>
<path d="M1602 1743 c4 -21 33 -25 33 -3 0 8 -8 16 -18 18 -14 3 -18 -1 -15
-15z"/>
<path d="M1685 1750 c3 -5 8 -10 11 -10 2 0 4 5 4 10 0 6 -5 10 -11 10 -5 0
-7 -4 -4 -10z"/>
<path d="M1973 1715 c3 -25 35 -32 43 -10 9 22 -2 31 -20 16 -11 -9 -15 -9
-20 1 -3 7 -5 4 -3 -7z"/>
<path d="M2170 1691 c0 -5 9 -8 19 -6 14 3 18 -1 14 -11 -3 -9 -12 -13 -22 -9
-12 5 -13 3 -4 -6 16 -16 45 -3 41 18 -3 19 -48 32 -48 14z"/>
<path d="M2276 1617 c-6 -26 -31 -41 -48 -31 -5 3 -7 15 -5 26 5 19 5 19 -13
3 -23 -21 -18 -35 20 -57 29 -17 30 -16 30 3 0 13 10 24 31 31 19 7 29 16 27
27 -5 26 -35 25 -42 -2z"/>
<path d="M1934 1569 c-1 -27 0 -29 14 -16 8 9 12 23 9 31 -10 26 -22 18 -23
-15z"/>
<path d="M2110 1586 c0 -2 7 -7 16 -10 8 -3 12 -2 9 4 -6 10 -25 14 -25 6z"/>
<path d="M1975 1549 c-8 -12 11 -29 33 -29 19 0 10 34 -10 38 -9 2 -19 -2 -23
-9z"/>
<path d="M5160 1515 c-13 -14 -19 -25 -14 -25 8 1 50 50 41 50 -2 0 -14 -11
-27 -25z"/>
<path d="M4990 1325 c-24 -25 -42 -45 -39 -45 3 0 25 20 49 45 24 25 42 45 39
45 -3 0 -25 -20 -49 -45z"/>
<path d="M4899 1243 l-34 -38 38 34 c20 19 37 36 37 38 0 8 -8 0 -41 -34z"/>
<path d="M4809 1163 c-13 -16 -12 -17 4 -4 9 7 17 15 17 17 0 8 -8 3 -21 -13z"/>
<path d="M1461 1137 c2 -1 13 -9 24 -17 19 -14 19 -14 6 3 -7 9 -18 17 -24 17
-6 0 -8 -1 -6 -3z"/>
<path d="M4729 1103 c-13 -16 -12 -17 4 -4 9 7 17 15 17 17 0 8 -8 3 -21 -13z"/>
<path d="M1527 1089 c12 -12 24 -21 27 -18 2 2 -8 13 -22 23 l-27 19 22 -24z"/>
<path d="M4679 1063 c-13 -16 -12 -17 4 -4 16 13 21 21 13 21 -2 0 -10 -8 -17
-17z"/>
<path d="M1595 1035 c51 -41 277 -172 376 -218 166 -78 378 -153 479 -171 34
-6 34 -5 -5 8 -22 8 -83 27 -135 44 -239 75 -519 210 -681 328 -54 39 -79 46
-34 9z"/>
<path d="M3818 1027 c8 -10 6 -13 -9 -14 -11 -1 -17 3 -13 9 4 6 1 8 -7 4 -8
-3 -21 -9 -30 -12 -27 -10 -10 -52 34 -84 49 -36 70 -38 89 -7 24 35 3 95 -28
83 -8 -3 -13 -2 -13 2 3 21 -3 32 -17 32 -12 0 -14 -3 -6 -13z"/>
<path d="M2870 1016 c0 -9 30 -14 35 -6 4 6 -3 10 -14 10 -12 0 -21 -2 -21 -4z"/>
<path d="M3996 1011 c-4 -7 -5 -15 -2 -18 9 -9 19 4 14 18 -4 11 -6 11 -12 0z"/>
<path d="M1996 948 c3 -5 10 -6 15 -3 13 9 11 12 -6 12 -8 0 -12 -4 -9 -9z"/>
<path d="M2043 927 c-3 -7 -3 -9 2 -5 4 4 16 3 26 -3 11 -5 19 -6 19 -1 0 15
-39 22 -47 9z"/>
<path d="M2810 906 c0 -3 9 -14 21 -25 12 -11 16 -21 10 -25 -5 -4 -19 4 -31
16 l-22 23 4 -24 c4 -33 49 -65 77 -56 12 4 26 18 32 32 7 20 5 28 -13 44 -25
20 -53 26 -42 8 4 -8 0 -8 -15 0 -11 7 -21 9 -21 7z"/>
<path d="M4304 834 c-18 -14 -18 -15 4 -4 12 6 22 13 22 15 0 8 -5 6 -26 -11z"/>
<path d="M2498 633 c6 -2 18 -2 25 0 6 3 1 5 -13 5 -14 0 -19 -2 -12 -5z"/>
<path d="M2585 615 c28 -7 61 -13 75 -13 14 0 -2 6 -35 14 -76 17 -107 16 -40
-1z"/>
<path d="M2708 593 c6 -2 18 -2 25 0 6 3 1 5 -13 5 -14 0 -19 -2 -12 -5z"/>
<path d="M2783 583 c9 -2 23 -2 30 0 6 3 -1 5 -18 5 -16 0 -22 -2 -12 -5z"/>
</g>
</svg>
